 0
SECTION
 2
HEADER
 9
$ACADVER
 1
AC1009
 0
ENDSEC
 0
SECTION
 2
TABLES
 0
TABLE
 2
LTYPE
 70
1
 0
LTYPE
 2
CONTINUOUS
 70
64
 3
solid line
 72
65
 73
0
 40
0.0
 0
ENDTAB
 0
TABLE
 2
LAYER
 70
6
 0
LAYER
 2
0
 70
0
 62
7
 6
CONTINUOUS
 0
LAYER
 2
1
 70
64
 62
106
 6
CONTINUOUS
 0
ENDTAB
 0
ENDSEC
 0
SECTION
 2
BLOCKS
 0
ENDSEC
 0
SECTION
 2
ENTITIES
 0
POLYLINE
 8
1
 66
1
 10
0.0
 20
0.0
 30
0.0
 70
64
 71
290
 72
576
 0
VERTEX
 8
1
 10
-2.2997
 20
0.0063
 30
2.2833
 70
192
 0
VERTEX
 8
1
 10
5.6166
 20
0.1934
 30
1.8376
 70
192
 0
VERTEX
 8
1
 10
5.6352
 20
0.3102
 30
1.278
 70
192
 0
VERTEX
 8
1
 10
-0.1378
 20
0.6567
 30
2.926
 70
192
 0
VERTEX
 8
1
 10
5.8617
 20
-0.0186
 30
1.2446
 70
192
 0
VERTEX
 8
1
 10
0.7273
 20
0.7553
 30
3.4771
 70
192
 0
VERTEX
 8
1
 10
5.4714
 20
-0.0364
 30
2.3775
 70
192
 0
VERTEX
 8
1
 10
5.1201
 20
0.3391
 30
2.1789
 70
192
 0
VERTEX
 8
1
 10
2.0691
 20
0.4934
 30
3.6069
 70
192
 0
VERTEX
 8
1
 10
5.9131
 20
-0.0544
 30
1.8043
 70
192
 0
VERTEX
 8
1
 10
5.4883
 20
0.3851
 30
0.8103
 70
192
 0
VERTEX
 8
1
 10
0.9456
 20
-1.2874
 30
1.6259
 70
192
 0
VERTEX
 8
1
 10
-0.7874
 20
-1.2795
 30
2.343
 70
192
 0
VERTEX
 8
1
 10
-1.2923
 20
1.4031
 30
2.4655
 70
192
 0
VERTEX
 8
1
 10
-1.291
 20
-0.8093
 30
2.4296
 70
192
 0
VERTEX
 8
1
 10
5.0645
 20
0.4986
 30
1.7712
 70
192
 0
VERTEX
 8
1
 10
0.2775
 20
1.4322
 30
1.4349
 70
192
 0
VERTEX
 8
1
 10
-0.7186
 20
1.2031
 30
1.1153
 70
192
 0
VERTEX
 8
1
 10
5.9376
 20
-0.3444
 30
1.7508
 70
192
 0
VERTEX
 8
1
 10
5.843
 20
-0.4027
 30
1.2421
 70
192
 0
VERTEX
 8
1
 10
5.5381
 20
-0.355
 30
2.4766
 70
192
 0
VERTEX
 8
1
 10
0.068
 20
1.3522
 30
2.0162
 70
192
 0
VERTEX
 8
1
 10
5.5866
 20
-0.3882
 30
0.8117
 70
192
 0
VERTEX
 8
1
 10
-0.3277
 20
0.4079
 30
0.4989
 70
192
 0
VERTEX
 8
1
 10
0.0626
 20
0.1778
 30
3.519
 70
192
 0
VERTEX
 8
1
 10
5.325
 20
-0.8378
 30
1.2194
 70
192
 0
VERTEX
 8
1
 10
-0.4915
 20
1.118
 30
0.8928
 70
192
 0
VERTEX
 8
1
 10
5.4212
 20
-0.7242
 30
1.909
 70
192
 0
VERTEX
 8
1
 10
0.4106
 20
1.6866
 30
1.7126
 70
192
 0
VERTEX
 8
1
 10
-2.3127
 20
0.4034
 30
1.3189
 70
192
 0
VERTEX
 8
1
 10
5.1956
 20
-0.7603
 30
0.8146
 70
192
 0
VERTEX
 8
1
 10
-0.7753
 20
-1.3879
 30
1.857
 70
192
 0
VERTEX
 8
1
 10
1.6385
 20
-0.3361
 30
4.2349
 70
192
 0
VERTEX
 8
1
 10
4.7818
 20
-0.9977
 30
1.2187
 70
192
 0
VERTEX
 8
1
 10
4.8996
 20
-0.8723
 30
1.9455
 70
192
 0
VERTEX
 8
1
 10
0.5814
 20
0.8484
 30
1.1464
 70
192
 0
VERTEX
 8
1
 10
-0.4458
 20
-0.8482
 30
1.043
 70
192
 0
VERTEX
 8
1
 10
-0.7422
 20
-0.4422
 30
0.4095
 70
192
 0
VERTEX
 8
1
 10
4.308
 20
-1.0548
 30
1.3257
 70
192
 0
VERTEX
 8
1
 10
4.8078
 20
-0.8535
 30
0.7464
 70
192
 0
VERTEX
 8
1
 10
4.8032
 20
-0.4107
 30
0.378
 70
192
 0
VERTEX
 8
1
 10
-0.6279
 20
1.0044
 30
0.5695
 70
192
 0
VERTEX
 8
1
 10
5.2
 20
-0.4
 30
0.4881
 70
192
 0
VERTEX
 8
1
 10
4.4021
 20
-0.4011
 30
0.3972
 70
192
 0
VERTEX
 8
1
 10
4.3846
 20
-0.8538
 30
0.7584
 70
192
 0
VERTEX
 8
1
 10
1.1019
 20
-1.0421
 30
2.7523
 70
192
 0
VERTEX
 8
1
 10
5.2005
 20
0
 30
0.3985
 70
192
 0
VERTEX
 8
1
 10
-2.3572
 20
0.5558
 30
1.9372
 70
192
 0
VERTEX
 8
1
 10
5.6456
 20
0.0014
 30
0.7812
 70
192
 0
VERTEX
 8
1
 10
-1.2049
 20
0.0025
 30
0.3168
 70
192
 0
VERTEX
 8
1
 10
-1.235
 20
0.9061
 30
0.6562
 70
192
 0
VERTEX
 8
1
 10
0.586
 20
0.5937
 30
4.2785
 70
192
 0
VERTEX
 8
1
 10
4.7971
 20
0.3967
 30
0.4195
 70
192
 0
VERTEX
 8
1
 10
-1.4267
 20
-1.4607
 30
1.7911
 70
192
 0
VERTEX
 8
1
 10
5.2
 20
0.4
 30
0.5395
 70
192
 0
VERTEX
 8
1
 10
4.3991
 20
0.395
 30
0.4464
 70
192
 0
VERTEX
 8
1
 10
0.9942
 20
0.0583
 30
4.1608
 70
192
 0
VERTEX
 8
1
 10
5.186
 20
0.6386
 30
0.8139
 70
192
 0
VERTEX
 8
1
 10
-0.2111
 20
-0.493
 30
0.4387
 70
192
 0
VERTEX
 8
1
 10
-1.3977
 20
0.5871
 30
2.4582
 70
192
 0
VERTEX
 8
1
 10
5.1181
 20
0.676
 30
1.2917
 70
192
 0
VERTEX
 8
1
 10
4.7556
 20
0.7763
 30
0.7895
 70
192
 0
VERTEX
 8
1
 10
-0.3831
 20
0.6951
 30
2.7372
 70
192
 0
VERTEX
 8
1
 10
-0.1134
 20
-0.8285
 30
1.0636
 70
192
 0
VERTEX
 8
1
 10
4.7555
 20
0.8675
 30
1.2369
 70
192
 0
VERTEX
 8
1
 10
4.3933
 20
0.9326
 30
1.1901
 70
192
 0
VERTEX
 8
1
 10
0.5991
 20
-1.1068
 30
2.738
 70
192
 0
VERTEX
 8
1
 10
4.366
 20
0.9775
 30
1.4927
 70
192
 0
VERTEX
 8
1
 10
4.7611
 20
0.7539
 30
1.682
 70
192
 0
VERTEX
 8
1
 10
4.3579
 20
0.8671
 30
1.8207
 70
192
 0
VERTEX
 8
1
 10
0.0945
 20
0.0643
 30
0.3254
 70
192
 0
VERTEX
 8
1
 10
4.7471
 20
0.6109
 30
2.069
 70
192
 0
VERTEX
 8
1
 10
0.2205
 20
0.9398
 30
3.0855
 70
192
 0
VERTEX
 8
1
 10
-0.8078
 20
0.0249
 30
0.3016
 70
192
 0
VERTEX
 8
1
 10
0.0019
 20
-1.4513
 30
2.2958
 70
192
 0
VERTEX
 8
1
 10
4.4821
 20
0.6929
 30
2.9681
 70
192
 0
VERTEX
 8
1
 10
-0.2668
 20
1.2628
 30
1.5039
 70
192
 0
VERTEX
 8
1
 10
2.0391
 20
-0.8494
 30
3.0632
 70
192
 0
VERTEX
 8
1
 10
4.3848
 20
0.7634
 30
2.4916
 70
192
 0
VERTEX
 8
1
 10
-1.212
 20
0.4059
 30
0.3184
 70
192
 0
VERTEX
 8
1
 10
4.6028
 20
0.0198
 30
2.8863
 70
192
 0
VERTEX
 8
1
 10
-2.0349
 20
0.8649
 30
1.232
 70
192
 0
VERTEX
 8
1
 10
-2
 20
0
 30
0.6174
 70
192
 0
VERTEX
 8
1
 10
2.1167
 20
-1.118
 30
3.0818
 70
192
 0
VERTEX
 8
1
 10
-1.3455
 20
1.1903
 30
1.2016
 70
192
 0
VERTEX
 8
1
 10
1.0942
 20
-1.1755
 30
2.3019
 70
192
 0
VERTEX
 8
1
 10
4.988
 20
-0.5365
 30
2.9097
 70
192
 0
VERTEX
 8
1
 10
4.5842
 20
-0.9787
 30
2.138
 70
192
 0
VERTEX
 8
1
 10
4.7004
 20
-0.711
 30
2.889
 70
192
 0
VERTEX
 8
1
 10
4.2068
 20
-1.1641
 30
2.0587
 70
192
 0
VERTEX
 8
1
 10
4.3167
 20
-1.1251
 30
2.6413
 70
192
 0
VERTEX
 8
1
 10
4.0506
 20
-1.1875
 30
1.3628
 70
192
 0
VERTEX
 8
1
 10
-1.2133
 20
1.343
 30
1.9827
 70
192
 0
VERTEX
 8
1
 10
0.8452
 20
-0.909
 30
1.1567
 70
192
 0
VERTEX
 8
1
 10
1.8197
 20
0.059
 30
4.1428
 70
192
 0
VERTEX
 8
1
 10
3.586
 20
-1.0009
 30
0.8392
 70
192
 0
VERTEX
 8
1
 10
1.6462
 20
-1.1634
 30
1.2821
 70
192
 0
VERTEX
 8
1
 10
3.917
 20
-0.86
 30
0.8052
 70
192
 0
VERTEX
 8
1
 10
3.5696
 20
-0.8021
 30
0.6467
 70
192
 0
VERTEX
 8
1
 10
-2.1658
 20
0
 30
0.8
 70
192
 0
VERTEX
 8
1
 10
4
 20
-0.4
 30
0.4482
 70
192
 0
VERTEX
 8
1
 10
-0.994
 20
0.9362
 30
0.6575
 70
192
 0
VERTEX
 8
1
 10
-1.4211
 20
-1.1164
 30
1.5248
 70
192
 0
VERTEX
 8
1
 10
-1.6394
 20
-0.8371
 30
1.5892
 70
192
 0
VERTEX
 8
1
 10
3.5954
 20
-0.002
 30
0.3904
 70
192
 0
VERTEX
 8
1
 10
4
 20
0.0005
 30
0.394
 70
192
 0
VERTEX
 8
1
 10
4.7479
 20
-0.0022
 30
0.2997
 70
192
 0
VERTEX
 8
1
 10
-1.7484
 20
0.9473
 30
2.167
 70
192
 0
VERTEX
 8
1
 10
4
 20
0.4
 30
0.5145
 70
192
 0
VERTEX
 8
1
 10
-1.982
 20
-0.3859
 30
0.8137
 70
192
 0
VERTEX
 8
1
 10
3.6
 20
0.4
 30
0.5053
 70
192
 0
VERTEX
 8
1
 10
3.989
 20
0.7617
 30
0.8243
 70
192
 0
VERTEX
 8
1
 10
-0.8628
 20
0.699
 30
2.5577
 70
192
 0
VERTEX
 8
1
 10
0.4862
 20
-1.6294
 30
1.8241
 70
192
 0
VERTEX
 8
1
 10
-1.247
 20
1.2765
 30
1.1675
 70
192
 0
VERTEX
 8
1
 10
3.9935
 20
0.9644
 30
1.1658
 70
192
 0
VERTEX
 8
1
 10
1.1081
 20
0.4072
 30
0.7223
 70
192
 0
VERTEX
 8
1
 10
3.9222
 20
1.1225
 30
1.3878
 70
192
 0
VERTEX
 8
1
 10
0.5518
 20
1.3684
 30
1.4447
 70
192
 0
VERTEX
 8
1
 10
0.0312
 20
-0.7593
 30
3.0406
 70
192
 0
VERTEX
 8
1
 10
3.9079
 20
1.1393
 30
1.6513
 70
192
 0
VERTEX
 8
1
 10
1.2724
 20
-1.0725
 30
1.2703
 70
192
 0
VERTEX
 8
1
 10
-0.8152
 20
1.199
 30
2.3502
 70
192
 0
VERTEX
 8
1
 10
-0.8133
 20
0.4104
 30
2.8795
 70
192
 0
VERTEX
 8
1
 10
3.9179
 20
0.9338
 30
2.1309
 70
192
 0
VERTEX
 8
1
 10
0.9744
 20
1.1868
 30
1.487
 70
192
 0
VERTEX
 8
1
 10
3.8375
 20
0.7395
 30
2.6676
 70
192
 0
VERTEX
 8
1
 10
-0.8706
 20
-0.2884
 30
3.4676
 70
192
 0
VERTEX
 8
1
 10
4.1181
 20
0.3833
 30
3.1043
 70
192
 0
VERTEX
 8
1
 10
-2.463
 20
-0.0374
 30
1.9364
 70
192
 0
VERTEX
 8
1
 10
4.3821
 20
-0.2228
 30
3.329
 70
192
 0
VERTEX
 8
1
 10
4.0774
 20
-0.7905
 30
2.7683
 70
192
 0
VERTEX
 8
1
 10
1.6419
 20
-1.1411
 30
0.8347
 70
192
 0
VERTEX
 8
1
 10
1.8604
 20
1.4356
 30
0.9925
 70
192
 0
VERTEX
 8
1
 10
-2.0997
 20
-0.4823
 30
1.1835
 70
192
 0
VERTEX
 8
1
 10
0.7991
 20
-0.0245
 30
3.3491
 70
192
 0
VERTEX
 8
1
 10
0.3868
 20
-0.8683
 30
1.1935
 70
192
 0
VERTEX
 8
1
 10
-2.146
 20
-0.4681
 30
1.653
 70
192
 0
VERTEX
 8
1
 10
-2.3467
 20
-0.036
 30
1.2754
 70
192
 0
VERTEX
 8
1
 10
3.514
 20
-1.1862
 30
2.5544
 70
192
 0
VERTEX
 8
1
 10
0.8404
 20
-0.6777
 30
2.744
 70
192
 0
VERTEX
 8
1
 10
3.0209
 20
-1.1759
 30
2.8647
 70
192
 0
VERTEX
 8
1
 10
3.4968
 20
-0.7239
 30
3.5397
 70
192
 0
VERTEX
 8
1
 10
0.6831
 20
-1.5119
 30
2.3692
 70
192
 0
VERTEX
 8
1
 10
3.9842
 20
-0.1457
 30
3.6374
 70
192
 0
VERTEX
 8
1
 10
1.5689
 20
0.0102
 30
0.3935
 70
192
 0
VERTEX
 8
1
 10
3.5607
 20
0.4226
 30
3.2767
 70
192
 0
VERTEX
 8
1
 10
3.2969
 20
1.4151
 30
3.4147
 70
192
 0
VERTEX
 8
1
 10
0.4243
 20
0.6598
 30
0.9172
 70
192
 0
VERTEX
 8
1
 10
3.1954
 20
1.4997
 30
3.3127
 70
192
 0
VERTEX
 8
1
 10
-1.1526
 20
-1.2618
 30
1.4804
 70
192
 0
VERTEX
 8
1
 10
1.1893
 20
-0.8635
 30
2.805
 70
192
 0
VERTEX
 8
1
 10
1.6
 20
-0.8
 30
0.5436
 70
192
 0
VERTEX
 8
1
 10
2.9924
 20
1.75
 30
2.6256
 70
192
 0
VERTEX
 8
1
 10
1.5241
 20
-0.8522
 30
1.7659
 70
192
 0
VERTEX
 8
1
 10
2.845
 20
1.8449
 30
2.1901
 70
192
 0
VERTEX
 8
1
 10
-1.6008
 20
0.0005
 30
0.401
 70
192
 0
VERTEX
 8
1
 10
-1.7801
 20
0.1929
 30
2.4661
 70
192
 0
VERTEX
 8
1
 10
-1.1758
 20
-0.2276
 30
3.3221
 70
192
 0
VERTEX
 8
1
 10
-1.6
 20
-0.6169
 30
0.8
 70
192
 0
VERTEX
 8
1
 10
2.6772
 20
1.8673
 30
2.2753
 70
192
 0
VERTEX
 8
1
 10
-0.4768
 20
-1.3877
 30
2.3137
 70
192
 0
VERTEX
 8
1
 10
3.0961
 20
1.519
 30
1.6191
 70
192
 0
VERTEX
 8
1
 10
2.8793
 20
1.7006
 30
1.7267
 70
192
 0
VERTEX
 8
1
 10
3.472
 20
1.0636
 30
1.1801
 70
192
 0
VERTEX
 8
1
 10
-0.6986
 20
0.0667
 30
3.3958
 70
192
 0
VERTEX
 8
1
 10
-1.4382
 20
1.1571
 30
2.2105
 70
192
 0
VERTEX
 8
1
 10
0.8904
 20
-1.6588
 30
1.9877
 70
192
 0
VERTEX
 8
1
 10
3.5936
 20
0.7906
 30
0.8078
 70
192
 0
VERTEX
 8
1
 10
0.2618
 20
-0.6082
 30
0.6875
 70
192
 0
VERTEX
 8
1
 10
2.8232
 20
1.0218
 30
0.8053
 70
192
 0
VERTEX
 8
1
 10
2.8306
 20
1.2741
 30
1.2028
 70
192
 0
VERTEX
 8
1
 10
2.8488
 20
0.8219
 30
0.6012
 70
192
 0
VERTEX
 8
1
 10
1.2878
 20
0.9979
 30
1.0901
 70
192
 0
VERTEX
 8
1
 10
0.6745
 20
1.4652
 30
1.9548
 70
192
 0
VERTEX
 8
1
 10
2.2826
 20
-0.8109
 30
3.3575
 70
192
 0
VERTEX
 8
1
 10
0.8706
 20
0.9567
 30
2.4635
 70
192
 0
VERTEX
 8
1
 10
0.021
 20
0.4335
 30
3.2214
 70
192
 0
VERTEX
 8
1
 10
-1.2712
 20
-0.0181
 30
2.909
 70
192
 0
VERTEX
 8
1
 10
1.2228
 20
-1.0758
 30
1.7085
 70
192
 0
VERTEX
 8
1
 10
3.5842
 20
-0.3859
 30
0.4206
 70
192
 0
VERTEX
 8
1
 10
-0.5874
 20
-1.1659
 30
1.5306
 70
192
 0
VERTEX
 8
1
 10
1.2585
 20
-0.8469
 30
0.8008
 70
192
 0
VERTEX
 8
1
 10
-0.8866
 20
-0.5251
 30
3.1327
 70
192
 0
VERTEX
 8
1
 10
2.8295
 20
-0.8117
 30
0.3761
 70
192
 0
VERTEX
 8
1
 10
1.7279
 20
0.9754
 30
0.7064
 70
192
 0
VERTEX
 8
1
 10
-1.6
 20
1.0748
 30
1.2
 70
192
 0
VERTEX
 8
1
 10
3.1957
 20
-1.2147
 30
0.8098
 70
192
 0
VERTEX
 8
1
 10
2.8081
 20
-1.2752
 30
0.736
 70
192
 0
VERTEX
 8
1
 10
-1.0417
 20
0.965
 30
2.5243
 70
192
 0
VERTEX
 8
1
 10
-1.0745
 20
-1.0714
 30
2.4173
 70
192
 0
VERTEX
 8
1
 10
-0.4461
 20
0.4122
 30
3.1113
 70
192
 0
VERTEX
 8
1
 10
0.8828
 20
0.7533
 30
4.2229
 70
192
 0
VERTEX
 8
1
 10
3.1349
 20
-1.6699
 30
1.1962
 70
192
 0
VERTEX
 8
1
 10
3.6579
 20
-1.7821
 30
1.6338
 70
192
 0
VERTEX
 8
1
 10
1.9776
 20
0.9549
 30
3.0739
 70
192
 0
VERTEX
 8
1
 10
-1.6243
 20
1.0907
 30
1.6309
 70
192
 0
VERTEX
 8
1
 10
-1.602
 20
0.401
 30
0.4142
 70
192
 0
VERTEX
 8
1
 10
0.4244
 20
-0.0895
 30
0.2826
 70
192
 0
VERTEX
 8
1
 10
3.0018
 20
-1.7218
 30
2.0198
 70
192
 0
VERTEX
 8
1
 10
-2.044
 20
0.9231
 30
1.7457
 70
192
 0
VERTEX
 8
1
 10
2.7509
 20
-1.4551
 30
2.5406
 70
192
 0
VERTEX
 8
1
 10
1.841
 20
-1.5402
 30
2.8097
 70
192
 0
VERTEX
 8
1
 10
-1.5312
 20
-0.6052
 30
2.3145
 70
192
 0
VERTEX
 8
1
 10
1.6041
 20
0.406
 30
0.5046
 70
192
 0
VERTEX
 8
1
 10
0.0389
 20
-0.1183
 30
3.6101
 70
192
 0
VERTEX
 8
1
 10
1.8913
 20
-1.477
 30
2.831
 70
192
 0
VERTEX
 8
1
 10
2.3294
 20
-1.2392
 30
3.1068
 70
192
 0
VERTEX
 8
1
 10
2.6537
 20
-1.2532
 30
3.0933
 70
192
 0
VERTEX
 8
1
 10
-1.0718
 20
1.2874
 30
1.0696
 70
192
 0
VERTEX
 8
1
 10
2.6602
 20
-0.8124
 30
3.2089
 70
192
 0
VERTEX
 8
1
 10
3.1582
 20
-0.7737
 30
3.3896
 70
192
 0
VERTEX
 8
1
 10
-1.6
 20
-0.4
 30
0.5817
 70
192
 0
VERTEX
 8
1
 10
-1.9476
 20
0.724
 30
0.8292
 70
192
 0
VERTEX
 8
1
 10
0.8008
 20
-0.7094
 30
0.6638
 70
192
 0
VERTEX
 8
1
 10
-1.5577
 20
-1.1602
 30
1.8788
 70
192
 0
VERTEX
 8
1
 10
3.3054
 20
-0.3025
 30
3.6543
 70
192
 0
VERTEX
 8
1
 10
2.9462
 20
-0.2932
 30
4.2213
 70
192
 0
VERTEX
 8
1
 10
-1.984
 20
-0.4463
 30
2.0225
 70
192
 0
VERTEX
 8
1
 10
2.1597
 20
-0.345
 30
4.278
 70
192
 0
VERTEX
 8
1
 10
-1.6205
 20
0.8691
 30
0.726
 70
192
 0
VERTEX
 8
1
 10
2.911
 20
0.0929
 30
3.9281
 70
192
 0
VERTEX
 8
1
 10
1.6079
 20
0.8403
 30
3.0037
 70
192
 0
VERTEX
 8
1
 10
3.1929
 20
0.2113
 30
3.4539
 70
192
 0
VERTEX
 8
1
 10
2.4069
 20
0.0616
 30
4.0332
 70
192
 0
VERTEX
 8
1
 10
-1.2511
 20
0.2311
 30
2.7332
 70
192
 0
VERTEX
 8
1
 10
-1.1931
 20
-0.3948
 30
0.4768
 70
192
 0
VERTEX
 8
1
 10
2.919
 20
0.712
 30
3.6968
 70
192
 0
VERTEX
 8
1
 10
2.5279
 20
0.6168
 30
3.7243
 70
192
 0
VERTEX
 8
1
 10
3.1134
 20
1.0251
 30
3.6194
 70
192
 0
VERTEX
 8
1
 10
-0.154
 20
0.7472
 30
2.7074
 70
192
 0
VERTEX
 8
1
 10
-2.2426
 20
0.592
 30
2.3118
 70
192
 0
VERTEX
 8
1
 10
3.0144
 20
1.2416
 30
3.7013
 70
192
 0
VERTEX
 8
1
 10
1.5986
 20
-0.4006
 30
0.396
 70
192
 0
VERTEX
 8
1
 10
2.5794
 20
1.1789
 30
3.6694
 70
192
 0
VERTEX
 8
1
 10
2.8795
 20
1.5054
 30
3.2817
 70
192
 0
VERTEX
 8
1
 10
2.4777
 20
1.3048
 30
3.1487
 70
192
 0
VERTEX
 8
1
 10
2.6666
 20
1.7341
 30
2.6829
 70
192
 0
VERTEX
 8
1
 10
0.8917
 20
0.4719
 30
4.3692
 70
192
 0
VERTEX
 8
1
 10
2.4652
 20
1.6342
 30
2.6457
 70
192
 0
VERTEX
 8
1
 10
1.9393
 20
1.1612
 30
2.4439
 70
192
 0
VERTEX
 8
1
 10
-1.6199
 20
-0.7765
 30
1.9808
 70
192
 0
VERTEX
 8
1
 10
2.6405
 20
1.8561
 30
2.3612
 70
192
 0
VERTEX
 8
1
 10
1.8754
 20
1.2103
 30
2.049
 70
192
 0
VERTEX
 8
1
 10
2.6666
 20
1.6695
 30
1.792
 70
192
 0
VERTEX
 8
1
 10
1.9811
 20
1.3431
 30
1.5984
 70
192
 0
VERTEX
 8
1
 10
-0.8569
 20
1.2218
 30
1.8041
 70
192
 0
VERTEX
 8
1
 10
-1.2156
 20
-0.9126
 30
1.1757
 70
192
 0
VERTEX
 8
1
 10
2.4712
 20
1.3297
 30
1.1998
 70
192
 0
VERTEX
 8
1
 10
2.1473
 20
1.4108
 30
1.0997
 70
192
 0
VERTEX
 8
1
 10
2.4106
 20
1.0696
 30
0.7916
 70
192
 0
VERTEX
 8
1
 10
-1.604
 20
-0.8063
 30
1.1997
 70
192
 0
VERTEX
 8
1
 10
-1.415
 20
1.2452
 30
1.7948
 70
192
 0
VERTEX
 8
1
 10
2.0329
 20
0.9872
 30
0.6427
 70
192
 0
VERTEX
 8
1
 10
2.4022
 20
0.7864
 30
0.519
 70
192
 0
VERTEX
 8
1
 10
1.9972
 20
0.411
 30
0.3432
 70
192
 0
VERTEX
 8
1
 10
2.7979
 20
0.4211
 30
0.3269
 70
192
 0
VERTEX
 8
1
 10
2.4
 20
0.4
 30
0.2795
 70
192
 0
VERTEX
 8
1
 10
-1.0166
 20
0.0927
 30
3.2681
 70
192
 0
VERTEX
 8
1
 10
2.8128
 20
-0.0025
 30
0.2104
 70
192
 0
VERTEX
 8
1
 10
2.4
 20
0
 30
0.1718
 70
192
 0
VERTEX
 8
1
 10
2
 20
0
 30
0.2217
 70
192
 0
VERTEX
 8
1
 10
2.8
 20
-0.4
 30
0.2216
 70
192
 0
VERTEX
 8
1
 10
2.4
 20
-0.4
 30
0.1813
 70
192
 0
VERTEX
 8
1
 10
2
 20
-0.4
 30
0.2304
 70
192
 0
VERTEX
 8
1
 10
-1.6515
 20
-0.3324
 30
2.3159
 70
192
 0
VERTEX
 8
1
 10
2.405
 20
-0.8297
 30
0.3253
 70
192
 0
VERTEX
 8
1
 10
1.997
 20
-0.8124
 30
0.376
 70
192
 0
VERTEX
 8
1
 10
-0.3003
 20
-0.4689
 30
3.3699
 70
192
 0
VERTEX
 8
1
 10
0.4959
 20
-1.3043
 30
1.5457
 70
192
 0
VERTEX
 8
1
 10
2.3817
 20
-1.3114
 30
0.7082
 70
192
 0
VERTEX
 8
1
 10
1.9822
 20
-1.2626
 30
0.7391
 70
192
 0
VERTEX
 8
1
 10
-1.195
 20
-0.6738
 30
0.7598
 70
192
 0
VERTEX
 8
1
 10
1.2379
 20
-0.5547
 30
2.8714
 70
192
 0
VERTEX
 8
1
 10
2.5382
 20
-1.7112
 30
1.1117
 70
192
 0
VERTEX
 8
1
 10
2.0711
 20
-1.4628
 30
1.1883
 70
192
 0
VERTEX
 8
1
 10
-0.8629
 20
0.448
 30
0.3541
 70
192
 0
VERTEX
 8
1
 10
-0.7928
 20
-0.8814
 30
1.0836
 70
192
 0
VERTEX
 8
1
 10
1.9908
 20
-1.326
 30
1.5971
 70
192
 0
VERTEX
 8
1
 10
2.9481
 20
-1.9148
 30
1.5875
 70
192
 0
VERTEX
 8
1
 10
2.5556
 20
-1.8308
 30
1.4419
 70
192
 0
VERTEX
 8
1
 10
2.2159
 20
-1.6347
 30
1.9805
 70
192
 0
VERTEX
 8
1
 10
2.0297
 20
-1.5011
 30
2.0181
 70
192
 0
VERTEX
 8
1
 10
1.8421
 20
-1.2369
 30
2.1377
 70
192
 0
VERTEX
 8
1
 10
-0.5826
 20
0.9
 30
2.4632
 70
192
 0
VERTEX
 8
1
 10
-0.4958
 20
-0.4308
 30
0.3575
 70
192
 0
VERTEX
 8
1
 10
2.0788
 20
-1.309
 30
2.8761
 70
192
 0
VERTEX
 8
1
 10
1.4653
 20
-1.0814
 30
2.344
 70
192
 0
VERTEX
 8
1
 10
1.5703
 20
-1.0318
 30
3.0569
 70
192
 0
VERTEX
 8
1
 10
-2.0964
 20
0.4185
 30
0.7174
 70
192
 0
VERTEX
 8
1
 10
0
 20
0
 30
0
 70
128
 71
127
 72
150
 73
125
 74
125
 0
VERTEX
 8
1
 10
0
 20
0
 30
0
 70
128
 71
195
 72
200
 73
91
 74
91
 0
VERTEX
 8
1
 10
0
 20
0
 30
0
 70
128
 71
10
 72
3
 73
5
 74
5
 0
VERTEX
 8
1
 10
0
 20
0
 30
0
 70
128
 71
10
 72
7
 73
8
 74
8
 0
VERTEX
 8
1
 10
0
 20
0
 30
0
 70
128
 71
166
 72
25
 73
206
 74
206
 0
VERTEX
 8
1
 10
0
 20
0
 30
0
 70
128
 71
11
 72
49
 73
3
 74
3
 0
VERTEX
 8
1
 10
0
 20
0
 30
0
 70
128
 71
3
 72
2
 73
16
 74
16
 0
VERTEX
 8
1
 10
0
 20
0
 30
0
 70
128
 71
3
 72
16
 73
61
 74
61
 0
VERTEX
 8
1
 10
0
 20
0
 30
0
 70
128
 71
241
 72
196
 73
223
 74
223
 0
VERTEX
 8
1
 10
0
 20
0
 30
0
 70
128
 71
124
 72
179
 73
226
 74
226
 0
VERTEX
 8
1
 10
0
 20
0
 30
0
 70
128
 71
20
 72
10
 73
5
 74
5
 0
VERTEX
 8
1
 10
0
 20
0
 30
0
 70
128
 71
240
 72
196
 73
241
 74
241
 0
VERTEX
 8
1
 10
0
 20
0
 30
0
 70
128
 71
19
 72
21
 73
7
 74
7
 0
VERTEX
 8
1
 10
0
 20
0
 30
0
 70
128
 71
154
 72
236
 73
238
 74
238
 0
VERTEX
 8
1
 10
0
 20
0
 30
0
 70
128
 71
260
 72
263
 73
181
 74
181
 0
VERTEX
 8
1
 10
0
 20
0
 30
0
 70
128
 71
19
 72
20
 73
26
 74
26
 0
VERTEX
 8
1
 10
0
 20
0
 30
0
 70
128
 71
40
 72
39
 73
34
 74
34
 0
VERTEX
 8
1
 10
0
 20
0
 30
0
 70
128
 71
51
 72
198
 73
80
 74
80
 0
VERTEX
 8
1
 10
0
 20
0
 30
0
 70
128
 71
21
 72
19
 73
28
 74
28
 0
VERTEX
 8
1
 10
0
 20
0
 30
0
 70
128
 71
140
 72
91
 73
202
 74
202
 0
VERTEX
 8
1
 10
0
 20
0
 30
0
 70
128
 71
23
 72
26
 73
20
 74
20
 0
VERTEX
 8
1
 10
0
 20
0
 30
0
 70
128
 71
10
 72
8
 73
2
 74
2
 0
VERTEX
 8
1
 10
0
 20
0
 30
0
 70
128
 71
36
 72
17
 73
27
 74
27
 0
VERTEX
 8
1
 10
0
 20
0
 30
0
 70
128
 71
35
 72
26
 73
34
 74
34
 0
VERTEX
 8
1
 10
0
 20
0
 30
0
 70
128
 71
210
 72
93
 73
115
 74
115
 0
VERTEX
 8
1
 10
0
 20
0
 30
0
 70
128
 71
109
 72
62
 73
112
 74
112
 0
VERTEX
 8
1
 10
0
 20
0
 30
0
 70
128
 71
26
 72
40
 73
34
 74
34
 0
VERTEX
 8
1
 10
0
 20
0
 30
0
 70
128
 71
40
 72
45
 73
39
 74
39
 0
VERTEX
 8
1
 10
0
 20
0
 30
0
 70
128
 71
176
 72
33
 73
220
 74
220
 0
VERTEX
 8
1
 10
0
 20
0
 30
0
 70
128
 71
208
 72
211
 73
209
 74
209
 0
VERTEX
 8
1
 10
0
 20
0
 30
0
 70
128
 71
41
 72
40
 73
31
 74
31
 0
VERTEX
 8
1
 10
0
 20
0
 30
0
 70
128
 71
111
 72
112
 73
169
 74
169
 0
VERTEX
 8
1
 10
0
 20
0
 30
0
 70
128
 71
23
 72
43
 73
31
 74
31
 0
VERTEX
 8
1
 10
0
 20
0
 30
0
 70
128
 71
44
 72
45
 73
40
 74
40
 0
VERTEX
 8
1
 10
0
 20
0
 30
0
 70
128
 71
67
 72
152
 73
144
 74
144
 0
VERTEX
 8
1
 10
0
 20
0
 30
0
 70
128
 71
47
 72
41
 73
43
 74
43
 0
VERTEX
 8
1
 10
0
 20
0
 30
0
 70
128
 71
47
 72
43
 73
23
 74
23
 0
VERTEX
 8
1
 10
0
 20
0
 30
0
 70
128
 71
47
 72
23
 73
49
 74
49
 0
VERTEX
 8
1
 10
0
 20
0
 30
0
 70
128
 71
187
 72
201
 73
82
 74
82
 0
VERTEX
 8
1
 10
0
 20
0
 30
0
 70
128
 71
41
 72
47
 73
107
 74
107
 0
VERTEX
 8
1
 10
0
 20
0
 30
0
 70
128
 71
47
 72
55
 73
53
 74
53
 0
VERTEX
 8
1
 10
0
 20
0
 30
0
 70
128
 71
51
 72
187
 73
221
 74
221
 0
VERTEX
 8
1
 10
0
 20
0
 30
0
 70
128
 71
47
 72
49
 73
11
 74
11
 0
VERTEX
 8
1
 10
0
 20
0
 30
0
 70
128
 71
246
 72
175
 73
126
 74
126
 0
VERTEX
 8
1
 10
0
 20
0
 30
0
 70
128
 71
151
 72
216
 73
54
 74
54
 0
VERTEX
 8
1
 10
0
 20
0
 30
0
 70
128
 71
53
 72
55
 73
58
 74
58
 0
VERTEX
 8
1
 10
0
 20
0
 30
0
 70
128
 71
58
 72
55
 73
11
 74
11
 0
VERTEX
 8
1
 10
0
 20
0
 30
0
 70
128
 71
56
 72
53
 73
62
 74
62
 0
VERTEX
 8
1
 10
0
 20
0
 30
0
 70
128
 71
38
 72
278
 73
286
 74
286
 0
VERTEX
 8
1
 10
0
 20
0
 30
0
 70
128
 71
62
 72
58
 73
61
 74
61
 0
VERTEX
 8
1
 10
0
 20
0
 30
0
 70
128
 71
261
 72
265
 73
264
 74
264
 0
VERTEX
 8
1
 10
0
 20
0
 30
0
 70
128
 71
58
 72
3
 73
61
 74
61
 0
VERTEX
 8
1
 10
0
 20
0
 30
0
 70
128
 71
95
 72
33
 73
57
 74
57
 0
VERTEX
 8
1
 10
0
 20
0
 30
0
 70
128
 71
18
 72
17
 73
77
 74
77
 0
VERTEX
 8
1
 10
0
 20
0
 30
0
 70
128
 71
65
 72
62
 73
61
 74
61
 0
VERTEX
 8
1
 10
0
 20
0
 30
0
 70
128
 71
38
 72
227
 73
273
 74
273
 0
VERTEX
 8
1
 10
0
 20
0
 30
0
 70
128
 71
69
 72
65
 73
61
 74
61
 0
VERTEX
 8
1
 10
0
 20
0
 30
0
 70
128
 71
65
 72
69
 73
68
 74
68
 0
VERTEX
 8
1
 10
0
 20
0
 30
0
 70
128
 71
230
 72
224
 73
228
 74
228
 0
VERTEX
 8
1
 10
0
 20
0
 30
0
 70
128
 71
31
 72
26
 73
23
 74
23
 0
VERTEX
 8
1
 10
0
 20
0
 30
0
 70
128
 71
56
 72
109
 73
106
 74
106
 0
VERTEX
 8
1
 10
0
 20
0
 30
0
 70
128
 71
16
 72
72
 73
69
 74
69
 0
VERTEX
 8
1
 10
0
 20
0
 30
0
 70
128
 71
16
 72
2
 73
8
 74
8
 0
VERTEX
 8
1
 10
0
 20
0
 30
0
 70
128
 71
69
 72
72
 73
70
 74
70
 0
VERTEX
 8
1
 10
0
 20
0
 30
0
 70
128
 71
60
 72
158
 73
108
 74
108
 0
VERTEX
 8
1
 10
0
 20
0
 30
0
 70
128
 71
280
 72
283
 73
282
 74
282
 0
VERTEX
 8
1
 10
0
 20
0
 30
0
 70
128
 71
188
 72
189
 73
194
 74
194
 0
VERTEX
 8
1
 10
0
 20
0
 30
0
 70
128
 71
8
 72
7
 73
76
 74
76
 0
VERTEX
 8
1
 10
0
 20
0
 30
0
 70
128
 71
238
 72
237
 73
240
 74
240
 0
VERTEX
 8
1
 10
0
 20
0
 30
0
 70
128
 71
82
 72
221
 73
187
 74
187
 0
VERTEX
 8
1
 10
0
 20
0
 30
0
 70
128
 71
79
 72
8
 73
76
 74
76
 0
VERTEX
 8
1
 10
0
 20
0
 30
0
 70
128
 71
7
 72
21
 73
81
 74
81
 0
VERTEX
 8
1
 10
0
 20
0
 30
0
 70
128
 71
166
 72
159
 73
259
 74
259
 0
VERTEX
 8
1
 10
0
 20
0
 30
0
 70
128
 71
115
 72
253
 73
85
 74
85
 0
VERTEX
 8
1
 10
0
 20
0
 30
0
 70
128
 71
135
 72
100
 73
139
 74
139
 0
VERTEX
 8
1
 10
0
 20
0
 30
0
 70
128
 71
21
 72
87
 73
81
 74
81
 0
VERTEX
 8
1
 10
0
 20
0
 30
0
 70
128
 71
145
 72
224
 73
147
 74
147
 0
VERTEX
 8
1
 10
0
 20
0
 30
0
 70
128
 71
129
 72
148
 73
127
 74
127
 0
VERTEX
 8
1
 10
0
 20
0
 30
0
 70
128
 71
262
 72
234
 73
265
 74
265
 0
VERTEX
 8
1
 10
0
 20
0
 30
0
 70
128
 71
2
 72
3
 73
10
 74
10
 0
VERTEX
 8
1
 10
0
 20
0
 30
0
 70
128
 71
87
 72
21
 73
28
 74
28
 0
VERTEX
 8
1
 10
0
 20
0
 30
0
 70
128
 71
236
 72
150
 73
233
 74
233
 0
VERTEX
 8
1
 10
0
 20
0
 30
0
 70
128
 71
28
 72
35
 73
87
 74
87
 0
VERTEX
 8
1
 10
0
 20
0
 30
0
 70
128
 71
237
 72
233
 73
235
 74
235
 0
VERTEX
 8
1
 10
0
 20
0
 30
0
 70
128
 71
89
 72
35
 73
88
 74
88
 0
VERTEX
 8
1
 10
0
 20
0
 30
0
 70
128
 71
88
 72
90
 73
91
 74
91
 0
VERTEX
 8
1
 10
0
 20
0
 30
0
 70
128
 71
19
 72
26
 73
28
 74
28
 0
VERTEX
 8
1
 10
0
 20
0
 30
0
 70
128
 71
34
 72
39
 73
88
 74
88
 0
VERTEX
 8
1
 10
0
 20
0
 30
0
 70
128
 71
39
 72
92
 73
90
 74
90
 0
VERTEX
 8
1
 10
0
 20
0
 30
0
 70
128
 71
108
 72
201
 73
197
 74
197
 0
VERTEX
 8
1
 10
0
 20
0
 30
0
 70
128
 71
45
 72
98
 73
92
 74
92
 0
VERTEX
 8
1
 10
0
 20
0
 30
0
 70
128
 71
227
 72
213
 73
160
 74
160
 0
VERTEX
 8
1
 10
0
 20
0
 30
0
 70
128
 71
92
 72
98
 73
96
 74
96
 0
VERTEX
 8
1
 10
0
 20
0
 30
0
 70
128
 71
196
 72
237
 73
235
 74
235
 0
VERTEX
 8
1
 10
0
 20
0
 30
0
 70
128
 71
278
 72
103
 73
151
 74
151
 0
VERTEX
 8
1
 10
0
 20
0
 30
0
 70
128
 71
98
 72
99
 73
96
 74
96
 0
VERTEX
 8
1
 10
0
 20
0
 30
0
 70
128
 71
44
 72
101
 73
45
 74
45
 0
VERTEX
 8
1
 10
0
 20
0
 30
0
 70
128
 71
101
 72
98
 73
45
 74
45
 0
VERTEX
 8
1
 10
0
 20
0
 30
0
 70
128
 71
101
 72
181
 73
99
 74
99
 0
VERTEX
 8
1
 10
0
 20
0
 30
0
 70
128
 71
30
 72
130
 73
139
 74
139
 0
VERTEX
 8
1
 10
0
 20
0
 30
0
 70
128
 71
106
 72
101
 73
44
 74
44
 0
VERTEX
 8
1
 10
0
 20
0
 30
0
 70
128
 71
105
 72
181
 73
101
 74
101
 0
VERTEX
 8
1
 10
0
 20
0
 30
0
 70
128
 71
107
 72
44
 73
41
 74
41
 0
VERTEX
 8
1
 10
0
 20
0
 30
0
 70
128
 71
106
 72
44
 73
107
 74
107
 0
VERTEX
 8
1
 10
0
 20
0
 30
0
 70
128
 71
53
 72
58
 73
62
 74
62
 0
VERTEX
 8
1
 10
0
 20
0
 30
0
 70
128
 71
106
 72
109
 73
111
 74
111
 0
VERTEX
 8
1
 10
0
 20
0
 30
0
 70
128
 71
106
 72
107
 73
56
 74
56
 0
VERTEX
 8
1
 10
0
 20
0
 30
0
 70
128
 71
109
 72
56
 73
62
 74
62
 0
VERTEX
 8
1
 10
0
 20
0
 30
0
 70
128
 71
111
 72
109
 73
112
 74
112
 0
VERTEX
 8
1
 10
0
 20
0
 30
0
 70
128
 71
189
 72
275
 73
194
 74
194
 0
VERTEX
 8
1
 10
0
 20
0
 30
0
 70
128
 71
182
 72
54
 73
32
 74
32
 0
VERTEX
 8
1
 10
0
 20
0
 30
0
 70
128
 71
112
 72
62
 73
66
 74
66
 0
VERTEX
 8
1
 10
0
 20
0
 30
0
 70
128
 71
169
 72
112
 73
116
 74
116
 0
VERTEX
 8
1
 10
0
 20
0
 30
0
 70
128
 71
66
 72
68
 73
118
 74
118
 0
VERTEX
 8
1
 10
0
 20
0
 30
0
 70
128
 71
37
 72
278
 73
151
 74
151
 0
VERTEX
 8
1
 10
0
 20
0
 30
0
 70
128
 71
133
 72
97
 73
272
 74
272
 0
VERTEX
 8
1
 10
0
 20
0
 30
0
 70
128
 71
68
 72
121
 73
118
 74
118
 0
VERTEX
 8
1
 10
0
 20
0
 30
0
 70
128
 71
118
 72
121
 73
156
 74
156
 0
VERTEX
 8
1
 10
0
 20
0
 30
0
 70
128
 71
121
 72
70
 73
125
 74
125
 0
VERTEX
 8
1
 10
0
 20
0
 30
0
 70
128
 71
81
 72
131
 73
76
 74
76
 0
VERTEX
 8
1
 10
0
 20
0
 30
0
 70
128
 71
168
 72
180
 73
12
 74
12
 0
VERTEX
 8
1
 10
0
 20
0
 30
0
 70
128
 71
48
 72
232
 73
1
 74
1
 0
VERTEX
 8
1
 10
0
 20
0
 30
0
 70
128
 71
70
 72
72
 73
8
 74
8
 0
VERTEX
 8
1
 10
0
 20
0
 30
0
 70
128
 71
49
 72
20
 73
5
 74
5
 0
VERTEX
 8
1
 10
0
 20
0
 30
0
 70
128
 71
125
 72
79
 73
127
 74
127
 0
VERTEX
 8
1
 10
0
 20
0
 30
0
 70
128
 71
248
 72
252
 73
104
 74
104
 0
VERTEX
 8
1
 10
0
 20
0
 30
0
 70
128
 71
38
 72
24
 73
74
 74
74
 0
VERTEX
 8
1
 10
0
 20
0
 30
0
 70
128
 71
127
 72
76
 73
129
 74
129
 0
VERTEX
 8
1
 10
0
 20
0
 30
0
 70
128
 71
139
 72
138
 73
135
 74
135
 0
VERTEX
 8
1
 10
0
 20
0
 30
0
 70
128
 71
246
 72
134
 73
250
 74
250
 0
VERTEX
 8
1
 10
0
 20
0
 30
0
 70
128
 71
76
 72
131
 73
129
 74
129
 0
VERTEX
 8
1
 10
0
 20
0
 30
0
 70
128
 71
89
 72
132
 73
81
 74
81
 0
VERTEX
 8
1
 10
0
 20
0
 30
0
 70
128
 71
266
 72
1
 73
232
 74
232
 0
VERTEX
 8
1
 10
0
 20
0
 30
0
 70
128
 71
188
 72
92
 73
96
 74
96
 0
VERTEX
 8
1
 10
0
 20
0
 30
0
 70
128
 71
132
 72
89
 73
91
 74
91
 0
VERTEX
 8
1
 10
0
 20
0
 30
0
 70
128
 71
83
 72
100
 73
110
 74
110
 0
VERTEX
 8
1
 10
0
 20
0
 30
0
 70
128
 71
140
 72
132
 73
91
 74
91
 0
VERTEX
 8
1
 10
0
 20
0
 30
0
 70
128
 71
219
 72
138
 73
1
 74
1
 0
VERTEX
 8
1
 10
0
 20
0
 30
0
 70
128
 71
134
 72
126
 73
174
 74
174
 0
VERTEX
 8
1
 10
0
 20
0
 30
0
 70
128
 71
143
 72
132
 73
140
 74
140
 0
VERTEX
 8
1
 10
0
 20
0
 30
0
 70
128
 71
163
 72
161
 73
164
 74
164
 0
VERTEX
 8
1
 10
0
 20
0
 30
0
 70
128
 71
142
 72
143
 73
140
 74
140
 0
VERTEX
 8
1
 10
0
 20
0
 30
0
 70
128
 71
62
 72
65
 73
66
 74
66
 0
VERTEX
 8
1
 10
0
 20
0
 30
0
 70
128
 71
132
 72
143
 73
131
 74
131
 0
VERTEX
 8
1
 10
0
 20
0
 30
0
 70
128
 71
225
 72
33
 73
95
 74
95
 0
VERTEX
 8
1
 10
0
 20
0
 30
0
 70
128
 71
28
 72
26
 73
35
 74
35
 0
VERTEX
 8
1
 10
0
 20
0
 30
0
 70
128
 71
129
 72
131
 73
145
 74
145
 0
VERTEX
 8
1
 10
0
 20
0
 30
0
 70
128
 71
229
 72
225
 73
95
 74
95
 0
VERTEX
 8
1
 10
0
 20
0
 30
0
 70
128
 71
148
 72
129
 73
147
 74
147
 0
VERTEX
 8
1
 10
0
 20
0
 30
0
 70
128
 71
127
 72
148
 73
150
 74
150
 0
VERTEX
 8
1
 10
0
 20
0
 30
0
 70
128
 71
129
 72
145
 73
147
 74
147
 0
VERTEX
 8
1
 10
0
 20
0
 30
0
 70
128
 71
31
 72
40
 73
26
 74
26
 0
VERTEX
 8
1
 10
0
 20
0
 30
0
 70
128
 71
70
 72
121
 73
68
 74
68
 0
VERTEX
 8
1
 10
0
 20
0
 30
0
 70
128
 71
154
 72
125
 73
150
 74
150
 0
VERTEX
 8
1
 10
0
 20
0
 30
0
 70
128
 71
234
 72
215
 73
183
 74
183
 0
VERTEX
 8
1
 10
0
 20
0
 30
0
 70
128
 71
195
 72
282
 73
200
 74
200
 0
VERTEX
 8
1
 10
0
 20
0
 30
0
 70
128
 71
87
 72
35
 73
89
 74
89
 0
VERTEX
 8
1
 10
0
 20
0
 30
0
 70
128
 71
121
 72
154
 73
156
 74
156
 0
VERTEX
 8
1
 10
0
 20
0
 30
0
 70
128
 71
273
 72
248
 73
278
 74
278
 0
VERTEX
 8
1
 10
0
 20
0
 30
0
 70
128
 71
219
 72
204
 73
242
 74
242
 0
VERTEX
 8
1
 10
0
 20
0
 30
0
 70
128
 71
199
 72
170
 73
215
 74
215
 0
VERTEX
 8
1
 10
0
 20
0
 30
0
 70
128
 71
163
 72
118
 73
156
 74
156
 0
VERTEX
 8
1
 10
0
 20
0
 30
0
 70
128
 71
204
 72
266
 73
159
 74
159
 0
VERTEX
 8
1
 10
0
 20
0
 30
0
 70
128
 71
156
 72
154
 73
238
 74
238
 0
VERTEX
 8
1
 10
0
 20
0
 30
0
 70
128
 71
156
 72
238
 73
161
 74
161
 0
VERTEX
 8
1
 10
0
 20
0
 30
0
 70
128
 71
169
 72
173
 73
111
 74
111
 0
VERTEX
 8
1
 10
0
 20
0
 30
0
 70
128
 71
163
 72
156
 73
161
 74
161
 0
VERTEX
 8
1
 10
0
 20
0
 30
0
 70
128
 71
22
 72
285
 73
123
 74
123
 0
VERTEX
 8
1
 10
0
 20
0
 30
0
 70
128
 71
172
 72
165
 73
163
 74
163
 0
VERTEX
 8
1
 10
0
 20
0
 30
0
 70
128
 71
172
 72
163
 73
164
 74
164
 0
VERTEX
 8
1
 10
0
 20
0
 30
0
 70
128
 71
126
 72
29
 73
119
 74
119
 0
VERTEX
 8
1
 10
0
 20
0
 30
0
 70
128
 71
213
 72
110
 73
160
 74
160
 0
VERTEX
 8
1
 10
0
 20
0
 30
0
 70
128
 71
119
 72
22
 73
17
 74
17
 0
VERTEX
 8
1
 10
0
 20
0
 30
0
 70
128
 71
6
 72
239
 73
52
 74
52
 0
VERTEX
 8
1
 10
0
 20
0
 30
0
 70
128
 71
252
 72
160
 73
135
 74
135
 0
VERTEX
 8
1
 10
0
 20
0
 30
0
 70
128
 71
172
 72
171
 73
165
 74
165
 0
VERTEX
 8
1
 10
0
 20
0
 30
0
 70
128
 71
41
 72
31
 73
43
 74
43
 0
VERTEX
 8
1
 10
0
 20
0
 30
0
 70
128
 71
171
 72
173
 73
169
 74
169
 0
VERTEX
 8
1
 10
0
 20
0
 30
0
 70
128
 71
6
 72
52
 73
178
 74
178
 0
VERTEX
 8
1
 10
0
 20
0
 30
0
 70
128
 71
183
 72
94
 73
122
 74
122
 0
VERTEX
 8
1
 10
0
 20
0
 30
0
 70
128
 71
111
 72
173
 73
257
 74
257
 0
VERTEX
 8
1
 10
0
 20
0
 30
0
 70
128
 71
286
 72
24
 73
38
 74
38
 0
VERTEX
 8
1
 10
0
 20
0
 30
0
 70
128
 71
30
 72
48
 73
130
 74
130
 0
VERTEX
 8
1
 10
0
 20
0
 30
0
 70
128
 71
105
 72
111
 73
257
 74
257
 0
VERTEX
 8
1
 10
0
 20
0
 30
0
 70
128
 71
85
 72
197
 73
187
 74
187
 0
VERTEX
 8
1
 10
0
 20
0
 30
0
 70
128
 71
110
 72
100
 73
135
 74
135
 0
VERTEX
 8
1
 10
0
 20
0
 30
0
 70
128
 71
37
 72
151
 73
182
 74
182
 0
VERTEX
 8
1
 10
0
 20
0
 30
0
 70
128
 71
57
 72
239
 73
9
 74
9
 0
VERTEX
 8
1
 10
0
 20
0
 30
0
 70
128
 71
181
 72
105
 73
260
 74
260
 0
VERTEX
 8
1
 10
0
 20
0
 30
0
 70
128
 71
9
 72
235
 73
229
 74
229
 0
VERTEX
 8
1
 10
0
 20
0
 30
0
 70
128
 71
185
 72
99
 73
181
 74
181
 0
VERTEX
 8
1
 10
0
 20
0
 30
0
 70
128
 71
124
 72
63
 73
192
 74
192
 0
VERTEX
 8
1
 10
0
 20
0
 30
0
 70
128
 71
146
 72
117
 73
199
 74
199
 0
VERTEX
 8
1
 10
0
 20
0
 30
0
 70
128
 71
99
 72
185
 73
188
 74
188
 0
VERTEX
 8
1
 10
0
 20
0
 30
0
 70
128
 71
185
 72
189
 73
188
 74
188
 0
VERTEX
 8
1
 10
0
 20
0
 30
0
 70
128
 71
198
 72
83
 73
157
 74
157
 0
VERTEX
 8
1
 10
0
 20
0
 30
0
 70
128
 71
259
 72
159
 73
179
 74
179
 0
VERTEX
 8
1
 10
0
 20
0
 30
0
 70
128
 71
223
 72
9
 73
239
 74
239
 0
VERTEX
 8
1
 10
0
 20
0
 30
0
 70
128
 71
92
 72
188
 73
194
 74
194
 0
VERTEX
 8
1
 10
0
 20
0
 30
0
 70
128
 71
175
 72
73
 73
29
 74
29
 0
VERTEX
 8
1
 10
0
 20
0
 30
0
 70
128
 71
219
 72
266
 73
204
 74
204
 0
VERTEX
 8
1
 10
0
 20
0
 30
0
 70
128
 71
104
 72
242
 73
216
 74
216
 0
VERTEX
 8
1
 10
0
 20
0
 30
0
 70
128
 71
92
 72
194
 73
195
 74
195
 0
VERTEX
 8
1
 10
0
 20
0
 30
0
 70
128
 71
29
 72
231
 73
22
 74
22
 0
VERTEX
 8
1
 10
0
 20
0
 30
0
 70
128
 71
280
 72
195
 73
194
 74
194
 0
VERTEX
 8
1
 10
0
 20
0
 30
0
 70
128
 71
104
 72
216
 73
103
 74
103
 0
VERTEX
 8
1
 10
0
 20
0
 30
0
 70
128
 71
201
 72
232
 73
48
 74
48
 0
VERTEX
 8
1
 10
0
 20
0
 30
0
 70
128
 71
91
 72
90
 73
195
 74
195
 0
VERTEX
 8
1
 10
0
 20
0
 30
0
 70
128
 71
195
 72
280
 73
282
 74
282
 0
VERTEX
 8
1
 10
0
 20
0
 30
0
 70
128
 71
172
 72
245
 73
249
 74
249
 0
VERTEX
 8
1
 10
0
 20
0
 30
0
 70
128
 71
202
 72
91
 73
200
 74
200
 0
VERTEX
 8
1
 10
0
 20
0
 30
0
 70
128
 71
88
 72
91
 73
89
 74
89
 0
VERTEX
 8
1
 10
0
 20
0
 30
0
 70
128
 71
282
 72
203
 73
200
 74
200
 0
VERTEX
 8
1
 10
0
 20
0
 30
0
 70
128
 71
203
 72
202
 73
200
 74
200
 0
VERTEX
 8
1
 10
0
 20
0
 30
0
 70
128
 71
140
 72
202
 73
142
 74
142
 0
VERTEX
 8
1
 10
0
 20
0
 30
0
 70
128
 71
33
 72
152
 73
274
 74
274
 0
VERTEX
 8
1
 10
0
 20
0
 30
0
 70
128
 71
209
 72
142
 73
202
 74
202
 0
VERTEX
 8
1
 10
0
 20
0
 30
0
 70
128
 71
209
 72
202
 73
203
 74
203
 0
VERTEX
 8
1
 10
0
 20
0
 30
0
 70
128
 71
203
 72
207
 73
208
 74
208
 0
VERTEX
 8
1
 10
0
 20
0
 30
0
 70
128
 71
169
 72
165
 73
171
 74
171
 0
VERTEX
 8
1
 10
0
 20
0
 30
0
 70
128
 71
165
 72
118
 73
163
 74
163
 0
VERTEX
 8
1
 10
0
 20
0
 30
0
 70
128
 71
211
 72
212
 73
209
 74
209
 0
VERTEX
 8
1
 10
0
 20
0
 30
0
 70
128
 71
212
 72
142
 73
209
 74
209
 0
VERTEX
 8
1
 10
0
 20
0
 30
0
 70
128
 71
143
 72
142
 73
212
 74
212
 0
VERTEX
 8
1
 10
0
 20
0
 30
0
 70
128
 71
208
 72
176
 73
211
 74
211
 0
VERTEX
 8
1
 10
0
 20
0
 30
0
 70
128
 71
1
 72
138
 73
130
 74
130
 0
VERTEX
 8
1
 10
0
 20
0
 30
0
 70
128
 71
212
 72
211
 73
217
 74
217
 0
VERTEX
 8
1
 10
0
 20
0
 30
0
 70
128
 71
217
 72
145
 73
212
 74
212
 0
VERTEX
 8
1
 10
0
 20
0
 30
0
 70
128
 71
145
 72
143
 73
212
 74
212
 0
VERTEX
 8
1
 10
0
 20
0
 30
0
 70
128
 71
176
 72
78
 73
33
 74
33
 0
VERTEX
 8
1
 10
0
 20
0
 30
0
 70
128
 71
217
 72
211
 73
218
 74
218
 0
VERTEX
 8
1
 10
0
 20
0
 30
0
 70
128
 71
157
 72
227
 73
50
 74
50
 0
VERTEX
 8
1
 10
0
 20
0
 30
0
 70
128
 71
218
 72
211
 73
176
 74
176
 0
VERTEX
 8
1
 10
0
 20
0
 30
0
 70
128
 71
224
 72
217
 73
218
 74
218
 0
VERTEX
 8
1
 10
0
 20
0
 30
0
 70
128
 71
32
 72
13
 73
162
 74
162
 0
VERTEX
 8
1
 10
0
 20
0
 30
0
 70
128
 71
222
 72
218
 73
220
 74
220
 0
VERTEX
 8
1
 10
0
 20
0
 30
0
 70
128
 71
64
 72
37
 73
270
 74
270
 0
VERTEX
 8
1
 10
0
 20
0
 30
0
 70
128
 71
228
 72
224
 73
222
 74
222
 0
VERTEX
 8
1
 10
0
 20
0
 30
0
 70
128
 71
255
 72
254
 73
256
 74
256
 0
VERTEX
 8
1
 10
0
 20
0
 30
0
 70
128
 71
228
 72
222
 73
225
 74
225
 0
VERTEX
 8
1
 10
0
 20
0
 30
0
 70
128
 71
283
 72
203
 73
282
 74
282
 0
VERTEX
 8
1
 10
0
 20
0
 30
0
 70
128
 71
125
 72
154
 73
121
 74
121
 0
VERTEX
 8
1
 10
0
 20
0
 30
0
 70
128
 71
107
 72
53
 73
56
 74
56
 0
VERTEX
 8
1
 10
0
 20
0
 30
0
 70
128
 71
228
 72
233
 73
230
 74
230
 0
VERTEX
 8
1
 10
0
 20
0
 30
0
 70
128
 71
233
 72
150
 73
230
 74
230
 0
VERTEX
 8
1
 10
0
 20
0
 30
0
 70
128
 71
168
 72
75
 73
144
 74
144
 0
VERTEX
 8
1
 10
0
 20
0
 30
0
 70
128
 71
150
 72
148
 73
230
 74
230
 0
VERTEX
 8
1
 10
0
 20
0
 30
0
 70
128
 71
233
 72
228
 73
235
 74
235
 0
VERTEX
 8
1
 10
0
 20
0
 30
0
 70
128
 71
110
 72
213
 73
83
 74
83
 0
VERTEX
 8
1
 10
0
 20
0
 30
0
 70
128
 71
228
 72
225
 73
229
 74
229
 0
VERTEX
 8
1
 10
0
 20
0
 30
0
 70
128
 71
237
 72
236
 73
233
 74
233
 0
VERTEX
 8
1
 10
0
 20
0
 30
0
 70
128
 71
251
 72
250
 73
254
 74
254
 0
VERTEX
 8
1
 10
0
 20
0
 30
0
 70
128
 71
154
 72
150
 73
236
 74
236
 0
VERTEX
 8
1
 10
0
 20
0
 30
0
 70
128
 71
238
 72
236
 73
237
 74
237
 0
VERTEX
 8
1
 10
0
 20
0
 30
0
 70
128
 71
82
 72
201
 73
48
 74
48
 0
VERTEX
 8
1
 10
0
 20
0
 30
0
 70
128
 71
90
 72
92
 73
195
 74
195
 0
VERTEX
 8
1
 10
0
 20
0
 30
0
 70
128
 71
249
 72
246
 73
250
 74
250
 0
VERTEX
 8
1
 10
0
 20
0
 30
0
 70
128
 71
161
 72
238
 73
240
 74
240
 0
VERTEX
 8
1
 10
0
 20
0
 30
0
 70
128
 71
243
 72
240
 73
241
 74
241
 0
VERTEX
 8
1
 10
0
 20
0
 30
0
 70
128
 71
164
 72
161
 73
243
 74
243
 0
VERTEX
 8
1
 10
0
 20
0
 30
0
 70
128
 71
245
 72
243
 73
244
 74
244
 0
VERTEX
 8
1
 10
0
 20
0
 30
0
 70
128
 71
172
 72
164
 73
245
 74
245
 0
VERTEX
 8
1
 10
0
 20
0
 30
0
 70
128
 71
249
 72
245
 73
246
 74
246
 0
VERTEX
 8
1
 10
0
 20
0
 30
0
 70
128
 71
155
 72
86
 73
288
 74
288
 0
VERTEX
 8
1
 10
0
 20
0
 30
0
 70
128
 71
230
 72
148
 73
147
 74
147
 0
VERTEX
 8
1
 10
0
 20
0
 30
0
 70
128
 71
260
 72
264
 73
263
 74
263
 0
VERTEX
 8
1
 10
0
 20
0
 30
0
 70
128
 71
171
 72
172
 73
249
 74
249
 0
VERTEX
 8
1
 10
0
 20
0
 30
0
 70
128
 71
251
 72
249
 73
250
 74
250
 0
VERTEX
 8
1
 10
0
 20
0
 30
0
 70
128
 71
255
 72
173
 73
171
 74
171
 0
VERTEX
 8
1
 10
0
 20
0
 30
0
 70
128
 71
227
 72
160
 73
273
 74
273
 0
VERTEX
 8
1
 10
0
 20
0
 30
0
 70
128
 71
254
 72
255
 73
251
 74
251
 0
VERTEX
 8
1
 10
0
 20
0
 30
0
 70
128
 71
257
 72
173
 73
255
 74
255
 0
VERTEX
 8
1
 10
0
 20
0
 30
0
 70
128
 71
8
 72
72
 73
16
 74
16
 0
VERTEX
 8
1
 10
0
 20
0
 30
0
 70
128
 71
99
 72
188
 73
96
 74
96
 0
VERTEX
 8
1
 10
0
 20
0
 30
0
 70
128
 71
243
 72
241
 73
244
 74
244
 0
VERTEX
 8
1
 10
0
 20
0
 30
0
 70
128
 71
256
 72
258
 73
255
 74
255
 0
VERTEX
 8
1
 10
0
 20
0
 30
0
 70
128
 71
257
 72
258
 73
261
 74
261
 0
VERTEX
 8
1
 10
0
 20
0
 30
0
 70
128
 71
17
 72
22
 73
77
 74
77
 0
VERTEX
 8
1
 10
0
 20
0
 30
0
 70
128
 71
271
 72
276
 73
275
 74
275
 0
VERTEX
 8
1
 10
0
 20
0
 30
0
 70
128
 71
258
 72
256
 73
262
 74
262
 0
VERTEX
 8
1
 10
0
 20
0
 30
0
 70
128
 71
260
 72
261
 73
264
 74
264
 0
VERTEX
 8
1
 10
0
 20
0
 30
0
 70
128
 71
61
 72
16
 73
69
 74
69
 0
VERTEX
 8
1
 10
0
 20
0
 30
0
 70
128
 71
261
 72
262
 73
265
 74
265
 0
VERTEX
 8
1
 10
0
 20
0
 30
0
 70
128
 71
263
 72
264
 73
267
 74
267
 0
VERTEX
 8
1
 10
0
 20
0
 30
0
 70
128
 71
186
 72
205
 73
254
 74
254
 0
VERTEX
 8
1
 10
0
 20
0
 30
0
 70
128
 71
185
 72
181
 73
263
 74
263
 0
VERTEX
 8
1
 10
0
 20
0
 30
0
 70
128
 71
264
 72
265
 73
268
 74
268
 0
VERTEX
 8
1
 10
0
 20
0
 30
0
 70
128
 71
39
 72
90
 73
88
 74
88
 0
VERTEX
 8
1
 10
0
 20
0
 30
0
 70
128
 71
44
 72
40
 73
41
 74
41
 0
VERTEX
 8
1
 10
0
 20
0
 30
0
 70
128
 71
244
 72
177
 73
175
 74
175
 0
VERTEX
 8
1
 10
0
 20
0
 30
0
 70
128
 71
267
 72
271
 73
189
 74
189
 0
VERTEX
 8
1
 10
0
 20
0
 30
0
 70
128
 71
268
 72
272
 73
271
 74
271
 0
VERTEX
 8
1
 10
0
 20
0
 30
0
 70
128
 71
232
 72
108
 73
158
 74
158
 0
VERTEX
 8
1
 10
0
 20
0
 30
0
 70
128
 71
102
 72
42
 73
18
 74
18
 0
VERTEX
 8
1
 10
0
 20
0
 30
0
 70
128
 71
68
 72
69
 73
70
 74
70
 0
VERTEX
 8
1
 10
0
 20
0
 30
0
 70
128
 71
189
 72
271
 73
275
 74
275
 0
VERTEX
 8
1
 10
0
 20
0
 30
0
 70
128
 71
271
 72
272
 73
276
 74
276
 0
VERTEX
 8
1
 10
0
 20
0
 30
0
 70
128
 71
276
 72
155
 73
279
 74
279
 0
VERTEX
 8
1
 10
0
 20
0
 30
0
 70
128
 71
122
 72
180
 73
97
 74
97
 0
VERTEX
 8
1
 10
0
 20
0
 30
0
 70
128
 71
275
 72
276
 73
279
 74
279
 0
VERTEX
 8
1
 10
0
 20
0
 30
0
 70
128
 71
280
 72
275
 73
281
 74
281
 0
VERTEX
 8
1
 10
0
 20
0
 30
0
 70
128
 71
42
 72
27
 73
18
 74
18
 0
VERTEX
 8
1
 10
0
 20
0
 30
0
 70
128
 71
275
 72
279
 73
281
 74
281
 0
VERTEX
 8
1
 10
0
 20
0
 30
0
 70
128
 71
280
 72
281
 73
283
 74
283
 0
VERTEX
 8
1
 10
0
 20
0
 30
0
 70
128
 71
177
 72
6
 73
73
 74
73
 0
VERTEX
 8
1
 10
0
 20
0
 30
0
 70
128
 71
279
 72
284
 73
283
 74
283
 0
VERTEX
 8
1
 10
0
 20
0
 30
0
 70
128
 71
267
 72
189
 73
185
 74
185
 0
VERTEX
 8
1
 10
0
 20
0
 30
0
 70
128
 71
266
 72
232
 73
158
 74
158
 0
VERTEX
 8
1
 10
0
 20
0
 30
0
 70
128
 71
268
 72
271
 73
267
 74
267
 0
VERTEX
 8
1
 10
0
 20
0
 30
0
 70
128
 71
283
 72
207
 73
203
 74
203
 0
VERTEX
 8
1
 10
0
 20
0
 30
0
 70
128
 71
235
 72
9
 73
196
 74
196
 0
VERTEX
 8
1
 10
0
 20
0
 30
0
 70
128
 71
284
 72
287
 73
207
 74
207
 0
VERTEX
 8
1
 10
0
 20
0
 30
0
 70
128
 71
284
 72
288
 73
289
 74
289
 0
VERTEX
 8
1
 10
0
 20
0
 30
0
 70
128
 71
207
 72
287
 73
84
 74
84
 0
VERTEX
 8
1
 10
0
 20
0
 30
0
 70
128
 71
290
 72
30
 73
139
 74
139
 0
VERTEX
 8
1
 10
0
 20
0
 30
0
 70
128
 71
279
 72
155
 73
288
 74
288
 0
VERTEX
 8
1
 10
0
 20
0
 30
0
 70
128
 71
155
 72
180
 73
86
 74
86
 0
VERTEX
 8
1
 10
0
 20
0
 30
0
 70
128
 71
276
 72
97
 73
155
 74
155
 0
VERTEX
 8
1
 10
0
 20
0
 30
0
 70
128
 71
207
 72
84
 73
208
 74
208
 0
VERTEX
 8
1
 10
0
 20
0
 30
0
 70
128
 71
97
 72
180
 73
155
 74
155
 0
VERTEX
 8
1
 10
0
 20
0
 30
0
 70
128
 71
279
 72
288
 73
284
 74
284
 0
VERTEX
 8
1
 10
0
 20
0
 30
0
 70
128
 71
272
 72
97
 73
276
 74
276
 0
VERTEX
 8
1
 10
0
 20
0
 30
0
 70
128
 71
133
 72
122
 73
97
 74
97
 0
VERTEX
 8
1
 10
0
 20
0
 30
0
 70
128
 71
87
 72
89
 73
81
 74
81
 0
VERTEX
 8
1
 10
0
 20
0
 30
0
 70
128
 71
203
 72
208
 73
209
 74
209
 0
VERTEX
 8
1
 10
0
 20
0
 30
0
 70
128
 71
112
 72
66
 73
116
 74
116
 0
VERTEX
 8
1
 10
0
 20
0
 30
0
 70
128
 71
138
 72
219
 73
242
 74
242
 0
VERTEX
 8
1
 10
0
 20
0
 30
0
 70
128
 71
272
 72
268
 73
133
 74
133
 0
VERTEX
 8
1
 10
0
 20
0
 30
0
 70
128
 71
290
 72
139
 73
100
 74
100
 0
VERTEX
 8
1
 10
0
 20
0
 30
0
 70
128
 71
153
 72
183
 73
133
 74
133
 0
VERTEX
 8
1
 10
0
 20
0
 30
0
 70
128
 71
63
 72
124
 73
113
 74
113
 0
VERTEX
 8
1
 10
0
 20
0
 30
0
 70
128
 71
234
 72
153
 73
268
 74
268
 0
VERTEX
 8
1
 10
0
 20
0
 30
0
 70
128
 71
153
 72
234
 73
183
 74
183
 0
VERTEX
 8
1
 10
0
 20
0
 30
0
 70
128
 71
190
 72
63
 73
113
 74
113
 0
VERTEX
 8
1
 10
0
 20
0
 30
0
 70
128
 71
42
 72
74
 73
24
 74
24
 0
VERTEX
 8
1
 10
0
 20
0
 30
0
 70
128
 71
234
 72
268
 73
265
 74
265
 0
VERTEX
 8
1
 10
0
 20
0
 30
0
 70
128
 71
146
 72
215
 73
234
 74
234
 0
VERTEX
 8
1
 10
0
 20
0
 30
0
 70
128
 71
262
 72
146
 73
234
 74
234
 0
VERTEX
 8
1
 10
0
 20
0
 30
0
 70
128
 71
279
 72
283
 73
281
 74
281
 0
VERTEX
 8
1
 10
0
 20
0
 30
0
 70
128
 71
15
 72
159
 73
184
 74
184
 0
VERTEX
 8
1
 10
0
 20
0
 30
0
 70
128
 71
256
 72
146
 73
262
 74
262
 0
VERTEX
 8
1
 10
0
 20
0
 30
0
 70
128
 71
15
 72
191
 73
216
 74
216
 0
VERTEX
 8
1
 10
0
 20
0
 30
0
 70
128
 71
256
 72
205
 73
146
 74
146
 0
VERTEX
 8
1
 10
0
 20
0
 30
0
 70
128
 71
48
 72
1
 73
130
 74
130
 0
VERTEX
 8
1
 10
0
 20
0
 30
0
 70
128
 71
136
 72
206
 73
25
 74
25
 0
VERTEX
 8
1
 10
0
 20
0
 30
0
 70
128
 71
254
 72
205
 73
256
 74
256
 0
VERTEX
 8
1
 10
0
 20
0
 30
0
 70
128
 71
117
 72
205
 73
186
 74
186
 0
VERTEX
 8
1
 10
0
 20
0
 30
0
 70
128
 71
63
 72
178
 73
192
 74
192
 0
VERTEX
 8
1
 10
0
 20
0
 30
0
 70
128
 71
242
 72
15
 73
216
 74
216
 0
VERTEX
 8
1
 10
0
 20
0
 30
0
 70
128
 71
250
 72
134
 73
186
 74
186
 0
VERTEX
 8
1
 10
0
 20
0
 30
0
 70
128
 71
57
 72
141
 73
136
 74
136
 0
VERTEX
 8
1
 10
0
 20
0
 30
0
 70
128
 71
174
 72
186
 73
134
 74
134
 0
VERTEX
 8
1
 10
0
 20
0
 30
0
 70
128
 71
223
 72
193
 73
177
 74
177
 0
VERTEX
 8
1
 10
0
 20
0
 30
0
 70
128
 71
284
 72
289
 73
287
 74
287
 0
VERTEX
 8
1
 10
0
 20
0
 30
0
 70
128
 71
46
 72
152
 73
289
 74
289
 0
VERTEX
 8
1
 10
0
 20
0
 30
0
 70
128
 71
19
 72
7
 73
10
 74
10
 0
VERTEX
 8
1
 10
0
 20
0
 30
0
 70
128
 71
260
 72
105
 73
257
 74
257
 0
VERTEX
 8
1
 10
0
 20
0
 30
0
 70
128
 71
166
 72
178
 73
25
 74
25
 0
VERTEX
 8
1
 10
0
 20
0
 30
0
 70
128
 71
246
 72
244
 73
175
 74
175
 0
VERTEX
 8
1
 10
0
 20
0
 30
0
 70
128
 71
257
 72
261
 73
260
 74
260
 0
VERTEX
 8
1
 10
0
 20
0
 30
0
 70
128
 71
244
 72
241
 73
177
 74
177
 0
VERTEX
 8
1
 10
0
 20
0
 30
0
 70
128
 71
7
 72
81
 73
76
 74
76
 0
VERTEX
 8
1
 10
0
 20
0
 30
0
 70
128
 71
186
 72
174
 73
117
 74
117
 0
VERTEX
 8
1
 10
0
 20
0
 30
0
 70
128
 71
240
 72
237
 73
196
 74
196
 0
VERTEX
 8
1
 10
0
 20
0
 30
0
 70
128
 71
177
 72
241
 73
223
 74
223
 0
VERTEX
 8
1
 10
0
 20
0
 30
0
 70
128
 71
214
 72
82
 73
290
 74
290
 0
VERTEX
 8
1
 10
0
 20
0
 30
0
 70
128
 71
278
 72
248
 73
103
 74
103
 0
VERTEX
 8
1
 10
0
 20
0
 30
0
 70
128
 71
219
 72
1
 73
266
 74
266
 0
VERTEX
 8
1
 10
0
 20
0
 30
0
 70
128
 71
229
 72
95
 73
9
 74
9
 0
VERTEX
 8
1
 10
0
 20
0
 30
0
 70
128
 71
82
 72
48
 73
30
 74
30
 0
VERTEX
 8
1
 10
0
 20
0
 30
0
 70
128
 71
223
 72
196
 73
9
 74
9
 0
VERTEX
 8
1
 10
0
 20
0
 30
0
 70
128
 71
47
 72
11
 73
55
 74
55
 0
VERTEX
 8
1
 10
0
 20
0
 30
0
 70
128
 71
193
 72
223
 73
239
 74
239
 0
VERTEX
 8
1
 10
0
 20
0
 30
0
 70
128
 71
255
 72
171
 73
251
 74
251
 0
VERTEX
 8
1
 10
0
 20
0
 30
0
 70
128
 71
214
 72
290
 73
221
 74
221
 0
VERTEX
 8
1
 10
0
 20
0
 30
0
 70
128
 71
235
 72
228
 73
229
 74
229
 0
VERTEX
 8
1
 10
0
 20
0
 30
0
 70
128
 71
9
 72
95
 73
57
 74
57
 0
VERTEX
 8
1
 10
0
 20
0
 30
0
 70
128
 71
258
 72
262
 73
261
 74
261
 0
VERTEX
 8
1
 10
0
 20
0
 30
0
 70
128
 71
57
 72
33
 73
274
 74
274
 0
VERTEX
 8
1
 10
0
 20
0
 30
0
 70
128
 71
70
 72
8
 73
79
 74
79
 0
VERTEX
 8
1
 10
0
 20
0
 30
0
 70
128
 71
157
 72
213
 73
227
 74
227
 0
VERTEX
 8
1
 10
0
 20
0
 30
0
 70
128
 71
131
 72
143
 73
145
 74
145
 0
VERTEX
 8
1
 10
0
 20
0
 30
0
 70
128
 71
93
 72
167
 73
253
 74
253
 0
VERTEX
 8
1
 10
0
 20
0
 30
0
 70
128
 71
33
 72
78
 73
152
 74
152
 0
VERTEX
 8
1
 10
0
 20
0
 30
0
 70
128
 71
224
 72
218
 73
222
 74
222
 0
VERTEX
 8
1
 10
0
 20
0
 30
0
 70
128
 71
84
 72
152
 73
78
 74
78
 0
VERTEX
 8
1
 10
0
 20
0
 30
0
 70
128
 71
248
 72
104
 73
103
 74
103
 0
VERTEX
 8
1
 10
0
 20
0
 30
0
 70
128
 71
176
 72
208
 73
78
 74
78
 0
VERTEX
 8
1
 10
0
 20
0
 30
0
 70
128
 71
208
 72
84
 73
78
 74
78
 0
VERTEX
 8
1
 10
0
 20
0
 30
0
 70
128
 71
161
 72
240
 73
243
 74
243
 0
VERTEX
 8
1
 10
0
 20
0
 30
0
 70
128
 71
152
 72
84
 73
289
 74
289
 0
VERTEX
 8
1
 10
0
 20
0
 30
0
 70
128
 71
71
 72
59
 73
170
 74
170
 0
VERTEX
 8
1
 10
0
 20
0
 30
0
 70
128
 71
102
 72
80
 73
277
 74
277
 0
VERTEX
 8
1
 10
0
 20
0
 30
0
 70
128
 71
160
 72
110
 73
135
 74
135
 0
VERTEX
 8
1
 10
0
 20
0
 30
0
 70
128
 71
289
 72
84
 73
287
 74
287
 0
VERTEX
 8
1
 10
0
 20
0
 30
0
 70
128
 71
107
 72
47
 73
53
 74
53
 0
VERTEX
 8
1
 10
0
 20
0
 30
0
 70
128
 71
86
 72
46
 73
289
 74
289
 0
VERTEX
 8
1
 10
0
 20
0
 30
0
 70
128
 71
86
 72
289
 73
288
 74
288
 0
VERTEX
 8
1
 10
0
 20
0
 30
0
 70
128
 71
75
 72
120
 73
67
 74
67
 0
VERTEX
 8
1
 10
0
 20
0
 30
0
 70
128
 71
258
 72
257
 73
255
 74
255
 0
VERTEX
 8
1
 10
0
 20
0
 30
0
 70
128
 71
19
 72
10
 73
20
 74
20
 0
VERTEX
 8
1
 10
0
 20
0
 30
0
 70
128
 71
144
 72
152
 73
46
 74
46
 0
VERTEX
 8
1
 10
0
 20
0
 30
0
 70
128
 71
222
 72
220
 73
225
 74
225
 0
VERTEX
 8
1
 10
0
 20
0
 30
0
 70
128
 71
86
 72
168
 73
46
 74
46
 0
VERTEX
 8
1
 10
0
 20
0
 30
0
 70
128
 71
168
 72
144
 73
46
 74
46
 0
VERTEX
 8
1
 10
0
 20
0
 30
0
 70
128
 71
168
 72
114
 73
75
 74
75
 0
VERTEX
 8
1
 10
0
 20
0
 30
0
 70
128
 71
168
 72
86
 73
180
 74
180
 0
VERTEX
 8
1
 10
0
 20
0
 30
0
 70
128
 71
27
 72
24
 73
71
 74
71
 0
VERTEX
 8
1
 10
0
 20
0
 30
0
 70
128
 71
250
 72
186
 73
254
 74
254
 0
VERTEX
 8
1
 10
0
 20
0
 30
0
 70
128
 71
226
 72
266
 73
158
 74
158
 0
VERTEX
 8
1
 10
0
 20
0
 30
0
 70
128
 71
180
 72
122
 73
12
 74
12
 0
VERTEX
 8
1
 10
0
 20
0
 30
0
 70
128
 71
122
 72
94
 73
12
 74
12
 0
VERTEX
 8
1
 10
0
 20
0
 30
0
 70
128
 71
79
 72
76
 73
127
 74
127
 0
VERTEX
 8
1
 10
0
 20
0
 30
0
 70
128
 71
94
 72
137
 73
270
 74
270
 0
VERTEX
 8
1
 10
0
 20
0
 30
0
 70
128
 71
94
 72
270
 73
12
 74
12
 0
VERTEX
 8
1
 10
0
 20
0
 30
0
 70
128
 71
226
 72
113
 73
124
 74
124
 0
VERTEX
 8
1
 10
0
 20
0
 30
0
 70
128
 71
32
 72
191
 73
13
 74
13
 0
VERTEX
 8
1
 10
0
 20
0
 30
0
 70
128
 71
290
 72
82
 73
30
 74
30
 0
VERTEX
 8
1
 10
0
 20
0
 30
0
 70
128
 71
215
 72
94
 73
183
 74
183
 0
VERTEX
 8
1
 10
0
 20
0
 30
0
 70
128
 71
149
 72
71
 73
199
 74
199
 0
VERTEX
 8
1
 10
0
 20
0
 30
0
 70
128
 71
49
 72
23
 73
20
 74
20
 0
VERTEX
 8
1
 10
0
 20
0
 30
0
 70
128
 71
170
 72
94
 73
215
 74
215
 0
VERTEX
 8
1
 10
0
 20
0
 30
0
 70
128
 71
171
 72
249
 73
251
 74
251
 0
VERTEX
 8
1
 10
0
 20
0
 30
0
 70
128
 71
34
 72
88
 73
35
 74
35
 0
VERTEX
 8
1
 10
0
 20
0
 30
0
 70
128
 71
199
 72
71
 73
170
 74
170
 0
VERTEX
 8
1
 10
0
 20
0
 30
0
 70
128
 71
215
 72
146
 73
199
 74
199
 0
VERTEX
 8
1
 10
0
 20
0
 30
0
 70
128
 71
117
 72
149
 73
199
 74
199
 0
VERTEX
 8
1
 10
0
 20
0
 30
0
 70
128
 71
149
 72
27
 73
71
 74
71
 0
VERTEX
 8
1
 10
0
 20
0
 30
0
 70
128
 71
162
 72
269
 73
120
 74
120
 0
VERTEX
 8
1
 10
0
 20
0
 30
0
 70
128
 71
174
 72
36
 73
149
 74
149
 0
VERTEX
 8
1
 10
0
 20
0
 30
0
 70
128
 71
174
 72
149
 73
117
 74
117
 0
VERTEX
 8
1
 10
0
 20
0
 30
0
 70
128
 71
273
 72
278
 73
38
 74
38
 0
VERTEX
 8
1
 10
0
 20
0
 30
0
 70
128
 71
27
 72
149
 73
36
 74
36
 0
VERTEX
 8
1
 10
0
 20
0
 30
0
 70
128
 71
174
 72
119
 73
36
 74
36
 0
VERTEX
 8
1
 10
0
 20
0
 30
0
 70
128
 71
268
 72
153
 73
133
 74
133
 0
VERTEX
 8
1
 10
0
 20
0
 30
0
 70
128
 71
239
 72
136
 73
52
 74
52
 0
VERTEX
 8
1
 10
0
 20
0
 30
0
 70
128
 71
52
 72
25
 73
178
 74
178
 0
VERTEX
 8
1
 10
0
 20
0
 30
0
 70
128
 71
119
 72
174
 73
126
 74
126
 0
VERTEX
 8
1
 10
0
 20
0
 30
0
 70
128
 71
134
 72
246
 73
126
 74
126
 0
VERTEX
 8
1
 10
0
 20
0
 30
0
 70
128
 71
231
 72
73
 73
4
 74
4
 0
VERTEX
 8
1
 10
0
 20
0
 30
0
 70
128
 71
126
 72
175
 73
29
 74
29
 0
VERTEX
 8
1
 10
0
 20
0
 30
0
 70
128
 71
119
 72
29
 73
22
 74
22
 0
VERTEX
 8
1
 10
0
 20
0
 30
0
 70
128
 71
175
 72
177
 73
73
 74
73
 0
VERTEX
 8
1
 10
0
 20
0
 30
0
 70
128
 71
29
 72
73
 73
231
 74
231
 0
VERTEX
 8
1
 10
0
 20
0
 30
0
 70
128
 71
104
 72
138
 73
242
 74
242
 0
VERTEX
 8
1
 10
0
 20
0
 30
0
 70
128
 71
160
 72
248
 73
273
 74
273
 0
VERTEX
 8
1
 10
0
 20
0
 30
0
 70
128
 71
177
 72
193
 73
6
 74
6
 0
VERTEX
 8
1
 10
0
 20
0
 30
0
 70
128
 71
11
 72
3
 73
58
 74
58
 0
VERTEX
 8
1
 10
0
 20
0
 30
0
 70
128
 71
6
 72
193
 73
239
 74
239
 0
VERTEX
 8
1
 10
0
 20
0
 30
0
 70
128
 71
3
 72
49
 73
5
 74
5
 0
VERTEX
 8
1
 10
0
 20
0
 30
0
 70
128
 71
239
 72
57
 73
136
 74
136
 0
VERTEX
 8
1
 10
0
 20
0
 30
0
 70
128
 71
52
 72
136
 73
25
 74
25
 0
VERTEX
 8
1
 10
0
 20
0
 30
0
 70
128
 71
57
 72
274
 73
141
 74
141
 0
VERTEX
 8
1
 10
0
 20
0
 30
0
 70
128
 71
136
 72
141
 73
206
 74
206
 0
VERTEX
 8
1
 10
0
 20
0
 30
0
 70
128
 71
67
 72
141
 73
152
 74
152
 0
VERTEX
 8
1
 10
0
 20
0
 30
0
 70
128
 71
152
 72
141
 73
274
 74
274
 0
VERTEX
 8
1
 10
0
 20
0
 30
0
 70
128
 71
137
 72
94
 73
170
 74
170
 0
VERTEX
 8
1
 10
0
 20
0
 30
0
 70
128
 71
141
 72
67
 73
206
 74
206
 0
VERTEX
 8
1
 10
0
 20
0
 30
0
 70
128
 71
133
 72
183
 73
122
 74
122
 0
VERTEX
 8
1
 10
0
 20
0
 30
0
 70
128
 71
264
 72
268
 73
267
 74
267
 0
VERTEX
 8
1
 10
0
 20
0
 30
0
 70
128
 71
114
 72
162
 73
75
 74
75
 0
VERTEX
 8
1
 10
0
 20
0
 30
0
 70
128
 71
166
 72
128
 73
159
 74
159
 0
VERTEX
 8
1
 10
0
 20
0
 30
0
 70
128
 71
108
 72
232
 73
201
 74
201
 0
VERTEX
 8
1
 10
0
 20
0
 30
0
 70
128
 71
67
 72
144
 73
75
 74
75
 0
VERTEX
 8
1
 10
0
 20
0
 30
0
 70
128
 71
75
 72
162
 73
120
 74
120
 0
VERTEX
 8
1
 10
0
 20
0
 30
0
 70
128
 71
182
 72
151
 73
54
 74
54
 0
VERTEX
 8
1
 10
0
 20
0
 30
0
 70
128
 71
162
 72
13
 73
269
 74
269
 0
VERTEX
 8
1
 10
0
 20
0
 30
0
 70
128
 71
114
 72
32
 73
162
 74
162
 0
VERTEX
 8
1
 10
0
 20
0
 30
0
 70
128
 71
270
 72
32
 73
114
 74
114
 0
VERTEX
 8
1
 10
0
 20
0
 30
0
 70
128
 71
151
 72
103
 73
216
 74
216
 0
VERTEX
 8
1
 10
0
 20
0
 30
0
 70
128
 71
12
 72
270
 73
114
 74
114
 0
VERTEX
 8
1
 10
0
 20
0
 30
0
 70
128
 71
270
 72
182
 73
32
 74
32
 0
VERTEX
 8
1
 10
0
 20
0
 30
0
 70
128
 71
137
 72
64
 73
270
 74
270
 0
VERTEX
 8
1
 10
0
 20
0
 30
0
 70
128
 71
102
 72
85
 73
51
 74
51
 0
VERTEX
 8
1
 10
0
 20
0
 30
0
 70
128
 71
270
 72
37
 73
182
 74
182
 0
VERTEX
 8
1
 10
0
 20
0
 30
0
 70
128
 71
82
 72
214
 73
221
 74
221
 0
VERTEX
 8
1
 10
0
 20
0
 30
0
 70
128
 71
263
 72
267
 73
185
 74
185
 0
VERTEX
 8
1
 10
0
 20
0
 30
0
 70
128
 71
225
 72
220
 73
33
 74
33
 0
VERTEX
 8
1
 10
0
 20
0
 30
0
 70
128
 71
170
 72
59
 73
64
 74
64
 0
VERTEX
 8
1
 10
0
 20
0
 30
0
 70
128
 71
37
 72
64
 73
59
 74
59
 0
VERTEX
 8
1
 10
0
 20
0
 30
0
 70
128
 71
37
 72
59
 73
286
 74
286
 0
VERTEX
 8
1
 10
0
 20
0
 30
0
 70
128
 71
71
 72
24
 73
59
 74
59
 0
VERTEX
 8
1
 10
0
 20
0
 30
0
 70
128
 71
145
 72
217
 73
224
 74
224
 0
VERTEX
 8
1
 10
0
 20
0
 30
0
 70
128
 71
286
 72
59
 73
24
 74
24
 0
VERTEX
 8
1
 10
0
 20
0
 30
0
 70
128
 71
27
 72
42
 73
24
 74
24
 0
VERTEX
 8
1
 10
0
 20
0
 30
0
 70
128
 71
123
 72
190
 73
14
 74
14
 0
VERTEX
 8
1
 10
0
 20
0
 30
0
 70
128
 71
221
 72
290
 73
198
 74
198
 0
VERTEX
 8
1
 10
0
 20
0
 30
0
 70
128
 71
216
 72
191
 73
54
 74
54
 0
VERTEX
 8
1
 10
0
 20
0
 30
0
 70
128
 71
275
 72
280
 73
194
 74
194
 0
VERTEX
 8
1
 10
0
 20
0
 30
0
 70
128
 71
27
 72
17
 73
18
 74
18
 0
VERTEX
 8
1
 10
0
 20
0
 30
0
 70
128
 71
36
 72
119
 73
17
 74
17
 0
VERTEX
 8
1
 10
0
 20
0
 30
0
 70
128
 71
116
 72
118
 73
165
 74
165
 0
VERTEX
 8
1
 10
0
 20
0
 30
0
 70
128
 71
101
 72
99
 73
98
 74
98
 0
VERTEX
 8
1
 10
0
 20
0
 30
0
 70
128
 71
81
 72
132
 73
131
 74
131
 0
VERTEX
 8
1
 10
0
 20
0
 30
0
 70
128
 71
210
 72
77
 73
247
 74
247
 0
VERTEX
 8
1
 10
0
 20
0
 30
0
 70
128
 71
138
 72
252
 73
135
 74
135
 0
VERTEX
 8
1
 10
0
 20
0
 30
0
 70
128
 71
77
 72
22
 73
123
 74
123
 0
VERTEX
 8
1
 10
0
 20
0
 30
0
 70
128
 71
187
 72
197
 73
201
 74
201
 0
VERTEX
 8
1
 10
0
 20
0
 30
0
 70
128
 71
22
 72
231
 73
285
 74
285
 0
VERTEX
 8
1
 10
0
 20
0
 30
0
 70
128
 71
169
 72
116
 73
165
 74
165
 0
VERTEX
 8
1
 10
0
 20
0
 30
0
 70
128
 71
285
 72
231
 73
4
 74
4
 0
VERTEX
 8
1
 10
0
 20
0
 30
0
 70
128
 71
73
 72
6
 73
4
 74
4
 0
VERTEX
 8
1
 10
0
 20
0
 30
0
 70
128
 71
192
 72
166
 73
259
 74
259
 0
VERTEX
 8
1
 10
0
 20
0
 30
0
 70
128
 71
4
 72
6
 73
178
 74
178
 0
VERTEX
 8
1
 10
0
 20
0
 30
0
 70
128
 71
63
 72
4
 73
178
 74
178
 0
VERTEX
 8
1
 10
0
 20
0
 30
0
 70
128
 71
138
 72
104
 73
252
 74
252
 0
VERTEX
 8
1
 10
0
 20
0
 30
0
 70
128
 71
184
 72
269
 73
191
 74
191
 0
VERTEX
 8
1
 10
0
 20
0
 30
0
 70
128
 71
170
 72
64
 73
137
 74
137
 0
VERTEX
 8
1
 10
0
 20
0
 30
0
 70
128
 71
166
 72
192
 73
178
 74
178
 0
VERTEX
 8
1
 10
0
 20
0
 30
0
 70
128
 71
83
 72
213
 73
157
 74
157
 0
VERTEX
 8
1
 10
0
 20
0
 30
0
 70
128
 71
253
 72
108
 73
197
 74
197
 0
VERTEX
 8
1
 10
0
 20
0
 30
0
 70
128
 71
285
 72
4
 73
63
 74
63
 0
VERTEX
 8
1
 10
0
 20
0
 30
0
 70
128
 71
18
 72
77
 73
210
 74
210
 0
VERTEX
 8
1
 10
0
 20
0
 30
0
 70
128
 71
206
 72
128
 73
166
 74
166
 0
VERTEX
 8
1
 10
0
 20
0
 30
0
 70
128
 71
192
 72
259
 73
124
 74
124
 0
VERTEX
 8
1
 10
0
 20
0
 30
0
 70
128
 71
206
 72
67
 73
120
 74
120
 0
VERTEX
 8
1
 10
0
 20
0
 30
0
 70
128
 71
206
 72
120
 73
269
 74
269
 0
VERTEX
 8
1
 10
0
 20
0
 30
0
 70
128
 71
269
 72
184
 73
159
 74
159
 0
VERTEX
 8
1
 10
0
 20
0
 30
0
 70
128
 71
269
 72
159
 73
128
 74
128
 0
VERTEX
 8
1
 10
0
 20
0
 30
0
 70
128
 71
106
 72
111
 73
105
 74
105
 0
VERTEX
 8
1
 10
0
 20
0
 30
0
 70
128
 71
164
 72
243
 73
245
 74
245
 0
VERTEX
 8
1
 10
0
 20
0
 30
0
 70
128
 71
245
 72
244
 73
246
 74
246
 0
VERTEX
 8
1
 10
0
 20
0
 30
0
 70
128
 71
191
 72
269
 73
13
 74
13
 0
VERTEX
 8
1
 10
0
 20
0
 30
0
 70
128
 71
15
 72
184
 73
191
 74
191
 0
VERTEX
 8
1
 10
0
 20
0
 30
0
 70
128
 71
32
 72
54
 73
191
 74
191
 0
VERTEX
 8
1
 10
0
 20
0
 30
0
 70
128
 71
205
 72
117
 73
146
 74
146
 0
VERTEX
 8
1
 10
0
 20
0
 30
0
 70
128
 71
65
 72
68
 73
66
 74
66
 0
VERTEX
 8
1
 10
0
 20
0
 30
0
 70
128
 71
79
 72
125
 73
70
 74
70
 0
VERTEX
 8
1
 10
0
 20
0
 30
0
 70
128
 71
204
 72
159
 73
15
 74
15
 0
VERTEX
 8
1
 10
0
 20
0
 30
0
 70
128
 71
278
 72
37
 73
286
 74
286
 0
VERTEX
 8
1
 10
0
 20
0
 30
0
 70
128
 71
14
 72
60
 73
167
 74
167
 0
VERTEX
 8
1
 10
0
 20
0
 30
0
 70
128
 71
105
 72
101
 73
106
 74
106
 0
VERTEX
 8
1
 10
0
 20
0
 30
0
 70
128
 71
284
 72
207
 73
283
 74
283
 0
VERTEX
 8
1
 10
0
 20
0
 30
0
 70
128
 71
159
 72
266
 73
179
 74
179
 0
VERTEX
 8
1
 10
0
 20
0
 30
0
 70
128
 71
160
 72
252
 73
248
 74
248
 0
VERTEX
 8
1
 10
0
 20
0
 30
0
 70
128
 71
230
 72
147
 73
224
 74
224
 0
VERTEX
 8
1
 10
0
 20
0
 30
0
 70
128
 71
226
 72
179
 73
266
 74
266
 0
VERTEX
 8
1
 10
0
 20
0
 30
0
 70
128
 71
124
 72
259
 73
179
 74
179
 0
VERTEX
 8
1
 10
0
 20
0
 30
0
 70
128
 71
66
 72
118
 73
116
 74
116
 0
VERTEX
 8
1
 10
0
 20
0
 30
0
 70
128
 71
226
 72
60
 73
113
 74
113
 0
VERTEX
 8
1
 10
0
 20
0
 30
0
 70
128
 71
45
 72
92
 73
39
 74
39
 0
VERTEX
 8
1
 10
0
 20
0
 30
0
 70
128
 71
12
 72
114
 73
168
 74
168
 0
VERTEX
 8
1
 10
0
 20
0
 30
0
 70
128
 71
158
 72
60
 73
226
 74
226
 0
VERTEX
 8
1
 10
0
 20
0
 30
0
 70
128
 71
218
 72
176
 73
220
 74
220
 0
VERTEX
 8
1
 10
0
 20
0
 30
0
 70
128
 71
60
 72
190
 73
113
 74
113
 0
VERTEX
 8
1
 10
0
 20
0
 30
0
 70
128
 71
190
 72
285
 73
63
 74
63
 0
VERTEX
 8
1
 10
0
 20
0
 30
0
 70
128
 71
139
 72
130
 73
138
 74
138
 0
VERTEX
 8
1
 10
0
 20
0
 30
0
 70
128
 71
14
 72
190
 73
60
 74
60
 0
VERTEX
 8
1
 10
0
 20
0
 30
0
 70
128
 71
123
 72
285
 73
190
 74
190
 0
VERTEX
 8
1
 10
0
 20
0
 30
0
 70
128
 71
198
 72
290
 73
83
 74
83
 0
VERTEX
 8
1
 10
0
 20
0
 30
0
 70
128
 71
60
 72
108
 73
167
 74
167
 0
VERTEX
 8
1
 10
0
 20
0
 30
0
 70
128
 71
93
 72
14
 73
167
 74
167
 0
VERTEX
 8
1
 10
0
 20
0
 30
0
 70
128
 71
247
 72
123
 73
14
 74
14
 0
VERTEX
 8
1
 10
0
 20
0
 30
0
 70
128
 71
253
 72
167
 73
108
 74
108
 0
VERTEX
 8
1
 10
0
 20
0
 30
0
 70
128
 71
115
 72
93
 73
253
 74
253
 0
VERTEX
 8
1
 10
0
 20
0
 30
0
 70
128
 71
210
 72
247
 73
93
 74
93
 0
VERTEX
 8
1
 10
0
 20
0
 30
0
 70
128
 71
85
 72
253
 73
197
 74
197
 0
VERTEX
 8
1
 10
0
 20
0
 30
0
 70
128
 71
102
 72
115
 73
85
 74
85
 0
VERTEX
 8
1
 10
0
 20
0
 30
0
 70
128
 71
102
 72
18
 73
210
 74
210
 0
VERTEX
 8
1
 10
0
 20
0
 30
0
 70
128
 71
102
 72
210
 73
115
 74
115
 0
VERTEX
 8
1
 10
0
 20
0
 30
0
 70
128
 71
51
 72
85
 73
187
 74
187
 0
VERTEX
 8
1
 10
0
 20
0
 30
0
 70
128
 71
77
 72
123
 73
247
 74
247
 0
VERTEX
 8
1
 10
0
 20
0
 30
0
 70
128
 71
206
 72
269
 73
128
 74
128
 0
VERTEX
 8
1
 10
0
 20
0
 30
0
 70
128
 71
247
 72
14
 73
93
 74
93
 0
VERTEX
 8
1
 10
0
 20
0
 30
0
 70
128
 71
102
 72
51
 73
80
 74
80
 0
VERTEX
 8
1
 10
0
 20
0
 30
0
 70
128
 71
242
 72
204
 73
15
 74
15
 0
VERTEX
 8
1
 10
0
 20
0
 30
0
 70
128
 71
42
 72
102
 73
277
 74
277
 0
VERTEX
 8
1
 10
0
 20
0
 30
0
 70
128
 71
51
 72
221
 73
198
 74
198
 0
VERTEX
 8
1
 10
0
 20
0
 30
0
 70
128
 71
50
 72
74
 73
80
 74
80
 0
VERTEX
 8
1
 10
0
 20
0
 30
0
 70
128
 71
74
 72
277
 73
80
 74
80
 0
VERTEX
 8
1
 10
0
 20
0
 30
0
 70
128
 71
42
 72
277
 73
74
 74
74
 0
VERTEX
 8
1
 10
0
 20
0
 30
0
 70
128
 71
50
 72
80
 73
157
 74
157
 0
VERTEX
 8
1
 10
0
 20
0
 30
0
 70
128
 71
80
 72
198
 73
157
 74
157
 0
VERTEX
 8
1
 10
0
 20
0
 30
0
 70
128
 71
83
 72
290
 73
100
 74
100
 0
VERTEX
 8
1
 10
0
 20
0
 30
0
 70
128
 71
50
 72
227
 73
74
 74
74
 0
VERTEX
 8
1
 10
0
 20
0
 30
0
 70
128
 71
227
 72
38
 73
74
 74
74
 0
SEQEND
 0
ENDSEC
 0
EOF
